<svg width="581" height="584" viewBox="0 0 581 584" fill="none" xmlns="http://www.w3.org/2000/svg">
<circle cx="296.384" cy="310.973" r="198.771" transform="rotate(1.98159 296.384 310.973)" stroke="black" stroke-width="2" stroke-dasharray="10 10"/>
<rect x="206" y="43" width="194" height="247" fill="white"/>
<g opacity="0.5" filter="url(#filter0_d_610_477)">
<rect x="205.5" y="35.5" width="140.523" height="253.76" rx="8.5" fill="#F4FAFF" stroke="black"/>
<ellipse cx="274.233" cy="103.741" rx="32.5807" ry="32.3505" fill="#8C6EFE"/>
<path d="M250.76 139.117H244.251C244.103 139.116 243.961 139.172 243.855 139.275C243.75 139.378 243.689 139.517 243.688 139.664V146.154C243.69 146.3 243.75 146.44 243.856 146.542C243.961 146.644 244.103 146.701 244.251 146.699H250.76C250.908 146.7 251.05 146.644 251.156 146.541C251.261 146.438 251.322 146.298 251.324 146.152V139.662C251.321 139.516 251.26 139.377 251.155 139.275C251.049 139.173 250.908 139.116 250.76 139.117Z" fill="#0076B2"/>
<path d="M244.817 141.959H245.95V145.58H244.817V141.959ZM245.384 140.156C245.514 140.156 245.641 140.195 245.749 140.266C245.857 140.338 245.941 140.44 245.991 140.559C246.041 140.679 246.054 140.81 246.028 140.936C246.003 141.063 245.94 141.179 245.848 141.27C245.756 141.362 245.639 141.424 245.512 141.449C245.384 141.474 245.252 141.461 245.132 141.412C245.012 141.362 244.909 141.278 244.837 141.171C244.765 141.064 244.726 140.937 244.727 140.808C244.727 140.635 244.796 140.469 244.919 140.347C245.043 140.225 245.21 140.156 245.384 140.156ZM246.661 141.959H247.748V142.456H247.763C247.914 142.171 248.284 141.871 248.835 141.871C249.983 141.868 250.196 142.619 250.196 143.591V145.58H249.062V143.818C249.062 143.399 249.055 142.858 248.473 142.858C247.892 142.858 247.793 143.316 247.793 143.791V145.58H246.661V141.959Z" fill="white"/>
<path d="M254.125 142.914H301.469" stroke="#C4C4C4" stroke-width="3" stroke-linecap="round"/>
<path d="M250.816 150.25H293.579" stroke="#C4C4C4" stroke-width="2" stroke-linecap="round"/>
<path d="M216.199 189.672H258.961" stroke="#C4C4C4" stroke-width="2" stroke-linecap="round"/>
<path d="M216.199 224.055H325.141" stroke="#C4C4C4" stroke-width="2" stroke-linecap="round"/>
<path d="M216.199 230.109H325.141" stroke="#C4C4C4" stroke-width="2" stroke-linecap="round"/>
<path d="M216.199 256.398H325.141" stroke="#C4C4C4" stroke-width="2" stroke-linecap="round"/>
<path d="M216.199 262.469H325.141" stroke="#C4C4C4" stroke-width="2" stroke-linecap="round"/>
<path d="M216.199 180.57H249.798" stroke="#C4C4C4" stroke-width="3" stroke-linecap="round"/>
<path d="M216.199 214.953H249.798" stroke="#C4C4C4" stroke-width="3" stroke-linecap="round"/>
<path d="M216.199 247.305H249.798" stroke="#C4C4C4" stroke-width="3" stroke-linecap="round"/>
</g>
<g opacity="0.5">
<rect x="219.5" y="35.5" width="140.523" height="253.76" rx="8.5" fill="#F4FAFF" stroke="black"/>
<ellipse cx="288.233" cy="103.741" rx="32.5807" ry="32.3505" fill="#07DEAA"/>
<path d="M264.764 139.117H258.255C258.107 139.116 257.965 139.172 257.859 139.275C257.754 139.378 257.693 139.517 257.691 139.664V146.154C257.694 146.3 257.754 146.44 257.86 146.542C257.965 146.644 258.107 146.701 258.255 146.699H264.764C264.912 146.7 265.054 146.644 265.16 146.541C265.265 146.438 265.325 146.298 265.327 146.152V139.662C265.325 139.516 265.264 139.377 265.159 139.275C265.053 139.173 264.911 139.116 264.764 139.117Z" fill="#F3C251"/>
<path d="M258.821 141.959H259.954V145.58H258.821V141.959ZM259.388 140.156C259.518 140.156 259.645 140.195 259.753 140.266C259.861 140.338 259.945 140.44 259.995 140.559C260.045 140.679 260.058 140.81 260.032 140.936C260.007 141.063 259.944 141.179 259.852 141.27C259.76 141.362 259.643 141.424 259.515 141.449C259.388 141.474 259.256 141.461 259.136 141.412C259.016 141.362 258.913 141.278 258.841 141.171C258.769 141.064 258.73 140.937 258.73 140.808C258.731 140.635 258.8 140.469 258.923 140.347C259.046 140.225 259.213 140.156 259.388 140.156ZM260.665 141.959H261.752V142.456H261.767C261.918 142.171 262.287 141.871 262.839 141.871C263.987 141.868 264.2 142.619 264.2 143.591V145.58H263.066V143.818C263.066 143.399 263.059 142.858 262.477 142.858C261.896 142.858 261.797 143.316 261.797 143.791V145.58H260.665V141.959Z" fill="white"/>
<path d="M268.129 142.914H315.473" stroke="#C4C4C4" stroke-width="3" stroke-linecap="round"/>
<path d="M264.816 150.25H307.579" stroke="#C4C4C4" stroke-width="2" stroke-linecap="round"/>
<path d="M230.199 189.672H272.961" stroke="#C4C4C4" stroke-width="2" stroke-linecap="round"/>
<path d="M230.199 224.055H339.141" stroke="#C4C4C4" stroke-width="2" stroke-linecap="round"/>
<path d="M230.199 230.109H339.141" stroke="#C4C4C4" stroke-width="2" stroke-linecap="round"/>
<path d="M230.199 256.398H339.141" stroke="#C4C4C4" stroke-width="2" stroke-linecap="round"/>
<path d="M230.199 262.469H339.141" stroke="#C4C4C4" stroke-width="2" stroke-linecap="round"/>
<path d="M230.199 180.57H263.798" stroke="#C4C4C4" stroke-width="3" stroke-linecap="round"/>
<path d="M230.199 214.953H263.798" stroke="#C4C4C4" stroke-width="3" stroke-linecap="round"/>
<path d="M230.199 247.305H263.798" stroke="#C4C4C4" stroke-width="3" stroke-linecap="round"/>
</g>
<g opacity="0.5" filter="url(#filter1_d_610_477)">
<rect x="233.5" y="35.5" width="139.523" height="253.76" rx="8.5" fill="#F4FAFF" stroke="black"/>
<circle cx="301.745" cy="103.741" r="32.3505" fill="#8C6EFE"/>
<path d="M278.441 139.117H271.977C271.831 139.116 271.689 139.172 271.585 139.275C271.48 139.378 271.42 139.517 271.418 139.664V146.154C271.42 146.3 271.48 146.44 271.585 146.542C271.69 146.644 271.831 146.701 271.977 146.699H278.441C278.587 146.7 278.729 146.644 278.833 146.541C278.938 146.438 278.998 146.298 279 146.152V139.662C278.997 139.516 278.937 139.377 278.832 139.275C278.728 139.173 278.587 139.116 278.441 139.117Z" fill="#0076B2"/>
<path d="M272.539 141.961H273.664V145.582H272.539V141.961ZM273.102 140.158C273.231 140.158 273.357 140.196 273.464 140.268C273.572 140.34 273.655 140.442 273.705 140.561C273.754 140.68 273.767 140.812 273.742 140.938C273.717 141.065 273.654 141.181 273.563 141.272C273.472 141.364 273.355 141.426 273.229 141.451C273.102 141.476 272.971 141.463 272.852 141.413C272.732 141.364 272.631 141.28 272.559 141.173C272.487 141.065 272.449 140.939 272.449 140.81C272.449 140.637 272.518 140.471 272.641 140.349C272.763 140.227 272.929 140.158 273.102 140.158ZM274.37 141.961H275.449V142.458H275.464C275.614 142.173 275.981 141.873 276.529 141.873C277.668 141.87 277.88 142.621 277.88 143.593V145.582H276.754V143.82C276.754 143.4 276.747 142.86 276.169 142.86C275.592 142.86 275.494 143.318 275.494 143.793V145.582H274.37V141.961Z" fill="white"/>
<path d="M281.781 142.91H328.791" stroke="#C4C4C4" stroke-width="3" stroke-linecap="round"/>
<path d="M278.492 150.254H320.952" stroke="#C4C4C4" stroke-width="2" stroke-linecap="round"/>
<path d="M244.121 189.676H286.581" stroke="#C4C4C4" stroke-width="2" stroke-linecap="round"/>
<path d="M244.121 224.055H352.293" stroke="#C4C4C4" stroke-width="2" stroke-linecap="round"/>
<path d="M244.121 230.111H352.293" stroke="#C4C4C4" stroke-width="2" stroke-linecap="round"/>
<path d="M244.121 256.396H352.293" stroke="#C4C4C4" stroke-width="2" stroke-linecap="round"/>
<path d="M244.121 262.467H352.293" stroke="#C4C4C4" stroke-width="2" stroke-linecap="round"/>
<path d="M244.121 180.572H277.483" stroke="#C4C4C4" stroke-width="3" stroke-linecap="round"/>
<path d="M244.121 214.951H277.483" stroke="#C4C4C4" stroke-width="3" stroke-linecap="round"/>
<path d="M244.121 247.301H277.483" stroke="#C4C4C4" stroke-width="3" stroke-linecap="round"/>
</g>
<g opacity="0.5">
<rect x="246.5" y="35.5" width="139.523" height="253.76" rx="8.5" fill="#F4FAFF" stroke="black"/>
<circle cx="314.745" cy="103.741" r="32.3505" fill="#07DEAA"/>
<path d="M291.441 139.117H284.977C284.831 139.116 284.689 139.172 284.585 139.275C284.48 139.378 284.42 139.517 284.418 139.664V146.154C284.42 146.3 284.48 146.44 284.585 146.542C284.69 146.644 284.831 146.701 284.977 146.699H291.441C291.587 146.7 291.729 146.644 291.833 146.541C291.938 146.438 291.998 146.298 292 146.152V139.662C291.997 139.516 291.937 139.377 291.832 139.275C291.728 139.173 291.587 139.116 291.441 139.117Z" fill="#377AAE"/>
<path d="M285.539 141.961H286.664V145.582H285.539V141.961ZM286.102 140.158C286.231 140.158 286.357 140.196 286.464 140.268C286.572 140.34 286.655 140.442 286.705 140.561C286.754 140.68 286.767 140.812 286.742 140.938C286.717 141.065 286.654 141.181 286.563 141.272C286.472 141.364 286.355 141.426 286.229 141.451C286.102 141.476 285.971 141.463 285.852 141.413C285.732 141.364 285.631 141.28 285.559 141.173C285.487 141.065 285.449 140.939 285.449 140.81C285.449 140.637 285.518 140.471 285.641 140.349C285.763 140.227 285.929 140.158 286.102 140.158ZM287.37 141.961H288.449V142.458H288.464C288.614 142.173 288.981 141.873 289.529 141.873C290.668 141.87 290.88 142.621 290.88 143.593V145.582H289.754V143.82C289.754 143.4 289.747 142.86 289.169 142.86C288.592 142.86 288.494 143.318 288.494 143.793V145.582H287.37V141.961Z" fill="white"/>
<path d="M294.781 142.91H341.791" stroke="#C4C4C4" stroke-width="3" stroke-linecap="round"/>
<path d="M291.492 150.254H333.952" stroke="#C4C4C4" stroke-width="2" stroke-linecap="round"/>
<path d="M257.121 189.676H299.581" stroke="#C4C4C4" stroke-width="2" stroke-linecap="round"/>
<path d="M257.121 224.055H365.293" stroke="#C4C4C4" stroke-width="2" stroke-linecap="round"/>
<path d="M257.121 230.111H365.293" stroke="#C4C4C4" stroke-width="2" stroke-linecap="round"/>
<path d="M257.121 256.396H365.293" stroke="#C4C4C4" stroke-width="2" stroke-linecap="round"/>
<path d="M257.121 262.467H365.293" stroke="#C4C4C4" stroke-width="2" stroke-linecap="round"/>
<path d="M257.121 180.572H290.483" stroke="#C4C4C4" stroke-width="3" stroke-linecap="round"/>
<path d="M257.121 214.951H290.483" stroke="#C4C4C4" stroke-width="3" stroke-linecap="round"/>
<path d="M257.121 247.301H290.483" stroke="#C4C4C4" stroke-width="3" stroke-linecap="round"/>
</g>
<rect x="259.5" y="35.5" width="139.523" height="253.76" rx="8.5" fill="#F4FAFF" stroke="black"/>
<circle cx="327.745" cy="103.741" r="32.3505" fill="#377AAE"/>
<path d="M304.441 139.117H297.977C297.831 139.116 297.689 139.172 297.585 139.275C297.48 139.378 297.42 139.517 297.418 139.664V146.154C297.42 146.3 297.48 146.44 297.585 146.542C297.69 146.644 297.831 146.701 297.977 146.699H304.441C304.587 146.7 304.729 146.644 304.833 146.541C304.938 146.438 304.998 146.298 305 146.152V139.662C304.997 139.516 304.937 139.377 304.832 139.275C304.728 139.173 304.587 139.116 304.441 139.117Z" fill="#0076B2"/>
<path d="M298.539 141.961H299.664V145.582H298.539V141.961ZM299.102 140.158C299.231 140.158 299.357 140.196 299.464 140.268C299.572 140.34 299.655 140.442 299.705 140.561C299.754 140.68 299.767 140.812 299.742 140.938C299.717 141.065 299.654 141.181 299.563 141.272C299.472 141.364 299.355 141.426 299.229 141.451C299.102 141.476 298.971 141.463 298.852 141.413C298.732 141.364 298.631 141.28 298.559 141.173C298.487 141.065 298.449 140.939 298.449 140.81C298.449 140.637 298.518 140.471 298.641 140.349C298.763 140.227 298.929 140.158 299.102 140.158ZM300.37 141.961H301.449V142.458H301.464C301.614 142.173 301.981 141.873 302.529 141.873C303.668 141.87 303.88 142.621 303.88 143.593V145.582H302.754V143.82C302.754 143.4 302.747 142.86 302.169 142.86C301.592 142.86 301.494 143.318 301.494 143.793V145.582H300.37V141.961Z" fill="white"/>
<path d="M307.781 142.91H354.791" stroke="#C4C4C4" stroke-width="3" stroke-linecap="round"/>
<path d="M304.492 150.254H346.952" stroke="#C4C4C4" stroke-width="2" stroke-linecap="round"/>
<path d="M270.121 189.676H312.581" stroke="#C4C4C4" stroke-width="2" stroke-linecap="round"/>
<path d="M270.121 224.055H378.293" stroke="#C4C4C4" stroke-width="2" stroke-linecap="round"/>
<path d="M270.121 230.111H378.293" stroke="#C4C4C4" stroke-width="2" stroke-linecap="round"/>
<path d="M270.121 256.396H378.293" stroke="#C4C4C4" stroke-width="2" stroke-linecap="round"/>
<path d="M270.121 262.467H378.293" stroke="#C4C4C4" stroke-width="2" stroke-linecap="round"/>
<path d="M270.121 180.572H303.483" stroke="#C4C4C4" stroke-width="3" stroke-linecap="round"/>
<path d="M270.121 214.951H303.483" stroke="#C4C4C4" stroke-width="3" stroke-linecap="round"/>
<path d="M270.121 247.301H303.483" stroke="#C4C4C4" stroke-width="3" stroke-linecap="round"/>
<path d="M350.381 136.706C355.567 133.676 361.255 132.17 367.445 132.17C373.783 132.17 379.472 133.639 384.518 136.595C385.073 136.919 385.566 137.318 386.095 137.674L404.12 125.851C401.407 123.4 398.493 121.161 395.216 119.307C386.926 114.623 377.677 112.281 367.445 112.281C357.221 112.281 347.965 114.66 339.683 119.419C333.968 122.686 329.158 126.92 325.127 131.977L342.307 143.513C344.615 140.818 347.272 138.511 350.381 136.706ZM414.66 139.086C414.566 138.917 414.449 138.775 414.354 138.609L397.015 150.354C399.597 155.581 400.941 161.511 400.941 168.25C400.941 179.199 397.771 187.917 391.433 194.385C385.094 200.873 377.101 204.126 367.445 204.126C361.106 204.126 355.381 202.676 350.269 199.794C345.158 196.914 341.124 192.731 338.168 187.267C335.213 181.782 333.745 175.444 333.745 168.25C333.745 164.863 334.103 161.671 334.779 158.652L316.784 146.591C314.286 153.216 313 160.42 313 168.25C313 179.199 315.37 188.883 320.128 197.303C324.877 205.743 331.365 212.287 339.572 216.971C347.788 221.655 357.072 223.996 367.445 223.996C377.817 223.996 387.112 221.655 395.327 216.971C403.534 212.287 409.975 205.743 414.66 197.303C419.344 188.883 421.685 179.199 421.685 168.25C421.685 157.301 419.344 147.579 414.66 139.086Z" fill="#F26941"/>
<path d="M454.776 137.055C454.739 137.055 454.702 137.055 454.664 137.051C453.755 136.99 453.068 136.204 453.128 135.297C453.192 134.326 453.236 133.347 453.236 132.363C453.236 108.062 433.465 88.2944 409.164 88.2944C408.253 88.2944 407.418 87.5595 407.418 86.6436C407.418 85.7327 408.06 84.9988 408.97 84.9988H408.979C435.291 84.9988 456.535 106.244 456.535 132.363C456.535 133.424 456.488 134.473 456.42 135.512C456.361 136.384 455.637 137.055 454.776 137.055Z" fill="#F26941"/>
<path d="M433.04 137.055C432.971 137.055 432.9 137.051 432.832 137.042C431.927 136.926 431.286 136.101 431.401 135.199C431.519 134.267 431.603 133.326 431.603 132.363C431.603 119.994 421.536 109.927 409.164 109.927C408.253 109.927 407.418 109.192 407.418 108.281C407.418 107.37 408.06 106.635 408.971 106.635C423.375 106.644 434.903 118.184 434.903 132.363C434.903 133.463 434.81 134.541 434.674 135.611C434.569 136.444 433.858 137.055 433.04 137.055Z" fill="#F26941"/>
<path d="M443.93 137.055C443.881 137.055 443.833 137.055 443.783 137.051C442.875 136.969 442.205 136.17 442.284 135.259C442.368 134.305 442.42 133.343 442.42 132.363C442.42 114.026 427.502 99.1081 409.164 99.1081C408.253 99.1081 407.418 98.3732 407.418 97.4623C407.418 96.5475 408.06 95.8125 408.971 95.8125H408.98C429.326 95.8125 445.719 112.208 445.719 132.363C445.719 133.437 445.663 134.494 445.571 135.551C445.496 136.406 444.776 137.055 443.93 137.055Z" fill="#F26941"/>
<path d="M422.076 137.055C421.951 137.055 421.825 137.042 421.698 137.012C420.811 136.801 420.258 135.917 420.466 135.027C420.68 134.124 420.787 133.226 420.787 132.363C420.787 125.952 415.575 120.741 409.169 120.741C408.277 120.741 407.451 120.041 407.423 119.151C407.395 118.262 407.98 117.514 408.869 117.458H408.899C417.412 117.458 424.087 124.144 424.087 132.363C424.087 133.48 423.949 134.632 423.681 135.783C423.503 136.544 422.824 137.055 422.076 137.055Z" fill="#F26941"/>
<path d="M408.028 213.156L405.199 210.323C404.111 209.234 404.111 207.461 405.199 206.371L396.751 214.83L396.613 214.969C395.525 216.059 395.525 217.832 396.613 218.922L400.055 222.369C401.173 220.457 404.496 216.732 408.028 213.156Z" fill="#747474"/>
<path d="M405.187 206.367C404.099 207.456 404.099 209.229 405.187 210.319L408.016 213.152C411.438 209.695 415.039 206.386 417.067 205.009L413.773 201.711C412.774 200.71 411.211 200.641 410.123 201.463C410.024 201.543 409.915 201.612 409.826 201.711L405.187 206.367Z" fill="#747474"/>
<path d="M470.075 256.494L418.63 204.41C418.442 204.222 417.878 204.469 417.077 205.024C415.049 206.401 411.449 209.7 408.026 213.167C404.495 216.742 401.182 220.467 400.044 222.379C399.678 223.003 399.53 223.429 399.698 223.587L451.143 275.671C456.375 280.971 464.852 280.971 470.085 275.671C475.307 270.372 475.307 261.783 470.075 256.494Z" fill="#363636"/>
<g filter="url(#filter2_d_610_477)">
<path d="M82.9981 534.801H497.996V448.923L82.9981 448.923V534.801Z" fill="#07DEAA"/>
<path opacity="0.1" d="M82.9981 534.801H497.996V448.923L82.9981 448.923V534.801Z" fill="white"/>
<path d="M83.0018 411.172H498L504.297 346.632C507.939 309.304 478.648 276.977 441.18 276.977H139.822C102.354 276.977 73.062 309.304 76.705 346.632L83.0018 411.172Z" fill="#07DEAA"/>
<path opacity="0.3" d="M83.0018 411.172H498L504.297 346.632C507.939 309.304 478.648 276.977 441.18 276.977H139.822C102.354 276.977 73.062 309.304 76.705 346.632L83.0018 411.172Z" fill="black"/>
<path opacity="0.9" d="M83.002 453.799L498 453.799V448.931L83.002 448.931V453.799Z" fill="#07DEAA"/>
<path d="M82.9981 448.93L497.996 448.93V403.598L82.9981 403.598V448.93Z" fill="#07DEAA"/>
<path opacity="0.2" d="M82.9981 448.93L497.996 448.93V403.598L82.9981 403.598V448.93Z" fill="black"/>
<path d="M503.802 332.803C479.488 332.803 460.202 353.331 461.686 377.639L469.977 512.776C470.488 521.027 477.312 527.462 485.571 527.462H522.033C530.292 527.462 537.132 521.027 537.627 512.776L545.918 377.639C547.402 353.331 528.132 332.803 503.802 332.803Z" fill="#07DEAA"/>
<path opacity="0.1" d="M534.473 390.315C541.597 373.343 533.629 353.803 516.675 346.671C499.722 339.538 480.203 347.516 473.079 364.488C465.955 381.46 473.923 401 490.877 408.133C507.83 415.265 527.349 407.288 534.473 390.315Z" fill="white"/>
<path d="M496.136 542.15H511.466L513.856 527.463H493.746L496.136 542.15Z" fill="black"/>
<path d="M68.7261 542.15H84.0561L86.4463 527.463H66.3359L68.7261 542.15Z" fill="black"/>
<path d="M77.1965 332.803C52.8828 332.803 33.5967 353.331 35.0802 377.639L43.3716 512.776C43.8826 521.027 50.7069 527.462 58.9653 527.462H95.4277C103.686 527.462 110.527 521.027 111.021 512.776L119.313 377.639C120.796 353.331 101.51 332.803 77.1965 332.803Z" fill="#07DEAA"/>
<path opacity="0.1" d="M107.887 390.313C115.011 373.341 107.043 353.801 90.0895 346.669C73.1361 339.536 53.6173 347.514 46.4932 364.486C39.369 381.458 47.3372 400.998 64.2906 408.131C81.2441 415.263 100.763 407.286 107.887 390.313Z" fill="white"/>
<path d="M175.129 235.725C177.355 237.111 179.959 238.662 182.399 240.114C184.888 241.566 187.393 243.052 189.915 244.471C194.943 247.342 200.036 250.049 205.146 252.656C210.273 255.214 215.416 257.623 220.592 259.735C225.768 261.815 230.927 263.63 235.971 264.851L233.911 264.653C238.559 264.818 243.884 264.752 249.092 264.636L264.917 264.224C275.533 263.96 286.214 263.679 296.912 263.778L298.396 275.709C293.137 277.079 287.895 278.234 282.621 279.34C277.346 280.446 272.054 281.436 266.747 282.393C261.439 283.284 256.098 284.192 250.691 284.901C245.252 285.611 239.927 286.304 233.911 286.568L233.235 286.601L231.85 286.37C225.059 285.264 218.68 283.548 212.564 281.452C206.432 279.389 200.531 276.964 194.795 274.34C189.042 271.732 183.454 268.861 177.981 265.841C175.245 264.306 172.525 262.772 169.854 261.138C167.135 259.488 164.596 257.887 161.777 255.989L175.129 235.725Z" fill="#FFC3BD"/>
<path d="M153.684 239.684C151.063 229.057 165.536 228.298 207.207 247.622L198.025 281.088C198.025 281.088 161.645 272.128 153.684 239.684Z" fill="#F26941"/>
<path opacity="0.2" d="M170.414 249.602C166.903 249.553 163.541 252.078 160.738 255.56C171.585 271.6 189.618 278.481 195.832 280.445C195.915 280.461 195.981 280.478 196.047 280.511C196.212 280.544 196.36 280.577 196.508 280.626C190.129 258.728 180.074 249.767 170.414 249.602Z" fill="black"/>
<path d="M336.719 396.058L353.829 393.351L349.329 349.67L332.219 352.376L336.719 396.058Z" fill="#FFC3BD"/>
<path d="M354.607 383.516L334.2 383.813C333.492 383.83 332.915 384.374 332.799 385.133L330.178 402.147C329.915 403.913 331.233 405.563 332.849 405.514C339.574 405.282 346.712 404.771 355.184 404.655C360.393 404.573 373.234 404.952 380.438 404.853C387.476 404.754 388.218 396.817 385.234 396.14C371.866 393.12 361.877 388.813 357.443 384.655C356.651 383.896 355.629 383.5 354.607 383.516Z" fill="black"/>
<path d="M211.74 346.386C211.74 346.386 274.379 274.14 307.165 281.104C344.765 289.091 359.732 369.093 359.732 369.093L330.638 372.427C330.638 372.427 315.424 336.65 298.066 323.547C262.477 381.041 171.47 423.551 160.277 364.225C175.228 358.186 211.74 346.386 211.74 346.386Z" fill="black"/>
<path d="M362.55 369.622L326.236 376.735L323.5 364.738L361.38 356.553L362.55 369.622Z" fill="black"/>
<path d="M292.922 264.191L306.933 261.484L312.768 278.218C312.768 278.218 298.757 282.871 291.949 274.043L292.922 264.191Z" fill="#FFC3BD"/>
<path d="M323.104 264.866L326.714 276.979L312.785 278.217L306.934 261.5L323.104 264.866Z" fill="#FFC3BD"/>
<path d="M135.04 368.501C135.04 368.501 107.743 328.235 94.4077 263.349C91.2592 248.002 102.551 233.43 118.177 232.622C131.315 231.929 145.293 231.747 156.585 231.797C167.926 231.846 177.898 239.371 180.997 250.296C187.146 271.881 191.02 300.149 215.136 340.282C219.009 346.718 214.245 355.068 206.844 356.322L135.04 368.501Z" fill="#F26941"/>
<path opacity="0.2" d="M93.9956 255.461C103.21 242.589 111.436 240.79 113.743 241.516C135.04 248.233 112.177 306.981 108.633 313.532C103.375 299.126 98.2814 282.194 94.3748 263.167C93.8473 260.543 93.7319 257.953 93.9956 255.461Z" fill="black"/>
<path opacity="0.2" d="M201.305 373.518C200.728 375.613 202.36 382.429 212.284 390.152C225.751 386.472 240.29 379.145 254.004 369.425C233.91 363.748 205.344 358.913 201.305 373.518Z" fill="black"/>
<path d="M117.965 191.234C122.251 202.901 127.74 224.024 121.097 232.473C128.432 238.431 137.086 243.035 150.768 242.589C164.449 242.144 161.664 236.665 157.196 231.813C143.877 229.552 142.509 218.331 143.152 208.991L117.965 191.234Z" fill="#FFC3BD"/>
<path opacity="0.2" d="M128.217 198.479L143.118 208.974C142.954 211.185 142.921 213.413 143.151 215.575C138.107 217.324 129.882 212.654 128.448 207.423C127.739 204.815 128.019 199.733 128.217 198.479Z" fill="black"/>
<path d="M145.409 178.428C148.079 183.543 153.123 186.167 156.667 184.302C160.228 182.438 160.937 176.794 158.266 171.678C155.596 166.563 150.552 163.939 147.008 165.803C143.464 167.668 142.738 173.328 145.409 178.428Z" fill="#F26941"/>
<path d="M141.949 180.243C144.785 185.672 150.142 188.477 153.933 186.497C157.708 184.517 158.466 178.51 155.631 173.081C152.796 167.652 147.438 164.846 143.647 166.827C139.872 168.807 139.114 174.814 141.949 180.243Z" fill="white"/>
<path d="M146.117 175.556L152.892 173.592C152.892 173.592 148.326 166.133 148.722 160.093C149.117 154.037 150.271 149.383 138.502 149.647C126.749 149.895 120.188 161.628 146.117 175.556Z" fill="black"/>
<path d="M108.616 185.887C116.841 199.534 120.946 207.917 131.99 211.779C148.605 217.588 163.029 202.967 159.139 187.339C155.644 173.279 142.787 153.312 125.759 154.219C108.978 155.11 100.407 172.24 108.616 185.887Z" fill="#FFC3BD"/>
<path d="M107.248 173.015C120.138 170.953 142.26 163.213 139.408 147.817C137.479 137.47 121.374 140.655 117.962 145.886C114.534 151.117 106.16 159.088 98.33 163.494C90.5002 167.883 88.0111 176.085 107.248 173.015Z" fill="black"/>
<path d="M113.662 196.58L120.14 193.775C120.14 193.775 114.667 186.959 114.304 180.903C113.942 174.847 114.486 170.078 102.865 171.827C91.227 173.576 86.1994 186.035 113.662 196.58Z" fill="black"/>
<path d="M111.931 189.832C111.716 189.832 111.519 189.749 111.354 189.601C102.502 180.871 101.15 172.439 101.117 168.181C101.101 164.188 102.205 160.574 104.002 158.775C104.332 158.445 104.843 158.445 105.172 158.775C105.502 159.088 105.502 159.616 105.172 159.947C104.051 161.085 102.733 163.907 102.766 168.181C102.782 172.175 104.084 180.129 112.508 188.429C112.837 188.743 112.837 189.271 112.524 189.601C112.359 189.749 112.145 189.832 111.931 189.832Z" fill="#F26941"/>
<path d="M108.981 203.083C112.212 205.294 116.135 205.904 119.284 205.393C123.998 204.601 124.163 200.03 120.998 196.746C118.163 193.792 112.278 190.64 108.437 193.115C104.63 195.558 105.289 200.558 108.981 203.083Z" fill="#FFC3BD"/>
<path d="M119.941 192.67C123.798 197.439 124.227 203.462 120.93 206.152C117.617 208.842 111.815 207.158 107.957 202.389C104.1 197.62 103.672 191.597 106.968 188.907C110.282 186.234 116.101 187.917 119.941 192.67Z" fill="white"/>
<path d="M116.911 195.144C120.537 199.616 120.949 205.31 117.834 207.835C114.718 210.359 109.246 208.775 105.636 204.303C102.009 199.831 101.597 194.138 104.713 191.613C107.828 189.072 113.284 190.656 116.911 195.144Z" fill="#F26941"/>
<path d="M127.443 182.025L126.207 181.992C126.24 180.755 127.278 178.89 128.465 177.933C129.454 177.141 130.312 177.108 130.839 177.223C131.531 177.372 132.125 177.85 132.504 178.576L131.416 179.154C131.268 178.873 131.004 178.527 130.592 178.444C130.196 178.362 129.735 178.527 129.24 178.906C128.268 179.698 127.476 181.233 127.443 182.025Z" fill="black"/>
<path d="M141.834 173.247C141.504 172.422 141.669 171.812 141.85 171.448C142.163 170.838 142.79 170.392 143.68 170.161C144.982 169.815 146.251 170.145 147.24 171.102L146.383 171.993C145.905 171.547 145.114 171.069 143.993 171.366C143.466 171.498 143.103 171.729 142.955 172.026C142.856 172.241 142.856 172.488 142.988 172.818L141.834 173.247Z" fill="black"/>
<path d="M139.262 176.596C139.262 176.596 145.377 181.975 149.976 183.807C148.888 186.646 144.916 187.421 144.916 187.421" stroke="black"/>
<path d="M141.603 195.162C136.839 196.63 133.179 194.551 133.015 194.469C132.833 194.353 132.767 194.138 132.866 193.957C132.965 193.775 133.212 193.726 133.394 193.841C133.443 193.858 137.68 196.267 142.823 193.891C143.02 193.808 143.251 193.891 143.35 194.072C143.449 194.254 143.366 194.485 143.185 194.568C142.641 194.815 142.114 195.013 141.603 195.162Z" fill="black"/>
<path d="M121.177 179.105C121.061 179.138 120.929 179.154 120.781 179.121C120.352 179.039 120.089 178.643 120.155 178.247C120.913 174.22 124.177 172.933 124.309 172.884C124.704 172.735 125.149 172.917 125.314 173.313C125.479 173.692 125.298 174.121 124.902 174.27C124.787 174.319 122.265 175.342 121.655 178.544C121.622 178.808 121.424 179.022 121.177 179.105Z" fill="black"/>
<path d="M147.174 166.926C146.96 167.041 146.68 167.041 146.449 166.926C143.4 165.374 140.96 166.612 140.861 166.678C140.498 166.876 140.02 166.744 139.806 166.381C139.592 166.018 139.707 165.573 140.086 165.374C140.218 165.308 143.317 163.691 147.141 165.622C147.521 165.82 147.685 166.266 147.488 166.629C147.405 166.761 147.306 166.86 147.174 166.926Z" fill="black"/>
<path d="M332.518 541.394L347.156 532.483L326.485 493.191L311.848 502.103L332.518 541.394Z" fill="#FFC3BD"/>
<path d="M341.208 520.304L324.147 528.836C323.57 529.116 323.339 529.842 323.587 530.568L329.043 546.823C329.603 548.506 331.433 549.463 332.735 548.77C338.158 545.915 341.95 543.523 348.856 540.057C353.109 537.928 366.214 532.037 372.099 529.1C377.835 526.228 374.901 518.835 372.148 519.413C359.818 521.987 349.549 522.169 344.043 520.188C343.054 519.842 342.049 519.891 341.208 520.304Z" fill="black"/>
<path d="M198.539 357.725C198.539 357.725 230.402 362.098 276.771 392.594C308.898 413.717 336.937 500.402 336.937 500.402L311.816 517.581C311.816 517.581 279.887 447.975 253.15 422.281C165.291 401.34 139.461 428.717 135.043 368.501C150.571 364.193 198.539 357.725 198.539 357.725Z" fill="black"/>
<path d="M342.97 504.232L309.887 520.833L304.035 510.007L338.338 491.938L342.97 504.232Z" fill="black"/>
<path d="M116.299 261.945C113.085 272.342 109.771 283.085 106.887 293.613C105.436 298.877 104.117 304.158 102.996 309.29C102.452 311.848 101.974 314.389 101.661 316.799C101.315 319.158 101.101 321.551 101.15 322.987C101.15 323.35 101.183 323.564 101.167 323.663C101.167 323.663 101.15 323.696 101.101 323.581L101.068 323.515C101.002 323.35 100.919 323.135 100.821 322.97C100.59 322.558 100.474 322.343 100.326 322.129C99.7326 321.337 99.6008 321.353 99.6337 321.403C99.6667 321.485 99.9304 321.7 100.227 321.931C101.546 322.921 103.738 324.175 105.98 325.264C110.546 327.475 115.607 329.604 120.717 331.568C130.953 335.611 141.602 339.341 152.085 343.285L149.448 355.018C137.893 353.846 126.634 351.882 115.244 349.258C109.557 347.872 103.87 346.403 98.0018 344.258C95.0347 343.136 92.0676 342.03 88.606 339.984C87.7159 339.423 86.8093 338.845 85.7543 338.02C84.7158 337.146 83.529 336.172 82.1608 334.208C81.8147 333.697 81.485 333.202 81.1388 332.459C80.974 332.129 80.8091 331.75 80.6773 331.436L80.463 330.875C80.1663 330.083 79.985 329.439 79.8036 328.746C79.4904 327.475 79.2761 326.287 79.1443 325.231C78.6498 321.023 78.7981 317.723 79.0124 314.455C79.2597 311.221 79.6553 308.168 80.1168 305.148C81.007 299.141 82.2432 293.365 83.5784 287.656C86.3148 276.236 89.4632 265.262 93.3699 254.156L116.299 261.945Z" fill="#FFC3BD"/>
<path d="M112.161 233.661C108.831 234.552 93.9133 236.813 83.2812 273.382L119.2 287.409C119.216 287.409 144.09 225.113 112.161 233.661Z" fill="#F26941"/>
<path d="M151.688 342.923L164.298 349.21L152.694 363.155C152.694 363.155 139.457 354.672 141.913 347.494L146.694 343.5C148.095 342.329 150.056 342.114 151.688 342.923Z" fill="#FFC3BD"/>
<path d="M175.69 361.899L163.097 372.197L152.695 363.153L164.3 349.209L175.69 361.899Z" fill="#FFC3BD"/>
</g>
<defs>
<filter id="filter0_d_610_477" x="170" y="0" width="211.523" height="324.76" filterUnits="userSpaceOnUse" color-interpolation-filters="sRGB">
<feFlood flood-opacity="0" result="BackgroundImageFix"/>
<feColorMatrix in="SourceAlpha" type="matrix" values="0 0 0 0 0 0 0 0 0 0 0 0 0 0 0 0 0 0 127 0" result="hardAlpha"/>
<feOffset/>
<feGaussianBlur stdDeviation="17.5"/>
<feComposite in2="hardAlpha" operator="out"/>
<feColorMatrix type="matrix" values="0 0 0 0 0 0 0 0 0 0 0 0 0 0 0 0 0 0 0.15 0"/>
<feBlend mode="normal" in2="BackgroundImageFix" result="effect1_dropShadow_610_477"/>
<feBlend mode="normal" in="SourceGraphic" in2="effect1_dropShadow_610_477" result="shape"/>
</filter>
<filter id="filter1_d_610_477" x="198" y="0" width="210.523" height="324.76" filterUnits="userSpaceOnUse" color-interpolation-filters="sRGB">
<feFlood flood-opacity="0" result="BackgroundImageFix"/>
<feColorMatrix in="SourceAlpha" type="matrix" values="0 0 0 0 0 0 0 0 0 0 0 0 0 0 0 0 0 0 127 0" result="hardAlpha"/>
<feOffset/>
<feGaussianBlur stdDeviation="17.5"/>
<feComposite in2="hardAlpha" operator="out"/>
<feColorMatrix type="matrix" values="0 0 0 0 0 0 0 0 0 0 0 0 0 0 0 0 0 0 0.15 0"/>
<feBlend mode="normal" in2="BackgroundImageFix" result="effect1_dropShadow_610_477"/>
<feBlend mode="normal" in="SourceGraphic" in2="effect1_dropShadow_610_477" result="shape"/>
</filter>
<filter id="filter2_d_610_477" x="0" y="106" width="581" height="477.998" filterUnits="userSpaceOnUse" color-interpolation-filters="sRGB">
<feFlood flood-opacity="0" result="BackgroundImageFix"/>
<feColorMatrix in="SourceAlpha" type="matrix" values="0 0 0 0 0 0 0 0 0 0 0 0 0 0 0 0 0 0 127 0" result="hardAlpha"/>
<feOffset/>
<feGaussianBlur stdDeviation="17.5"/>
<feComposite in2="hardAlpha" operator="out"/>
<feColorMatrix type="matrix" values="0 0 0 0 0 0 0 0 0 0 0 0 0 0 0 0 0 0 0.1 0"/>
<feBlend mode="normal" in2="BackgroundImageFix" result="effect1_dropShadow_610_477"/>
<feBlend mode="normal" in="SourceGraphic" in2="effect1_dropShadow_610_477" result="shape"/>
</filter>
</defs>
</svg>
