<svg width="535" height="549" viewBox="0 0 535 549" fill="none" xmlns="http://www.w3.org/2000/svg">
<circle cx="240.121" cy="230.121" r="201.619" transform="rotate(1.98159 240.121 230.121)" stroke="black" stroke-width="2" stroke-dasharray="10 10"/>
<g filter="url(#filter0_d_610_1932)">
<rect x="35.8867" y="69.2422" width="183.416" height="333.338" rx="8.5" fill="#F4FAFF" stroke="black"/>
<circle cx="125.604" cy="158.963" r="42.4556" fill="#377AAE"/>
<path d="M95.0172 205.389H86.5348C86.3424 205.387 86.157 205.461 86.0194 205.596C85.8818 205.73 85.8031 205.914 85.8008 206.106V214.623C85.8036 214.815 85.8824 214.998 86.0199 215.133C86.1575 215.267 86.3427 215.341 86.5348 215.339H95.0172C95.2097 215.341 95.3949 215.266 95.5324 215.131C95.67 214.997 95.7487 214.813 95.7512 214.621V206.104C95.7478 205.912 95.6688 205.729 95.5313 205.595C95.3939 205.461 95.2091 205.387 95.0172 205.389Z" fill="#0076B2"/>
<path d="M87.2737 209.123H88.7508V213.876H87.2737V209.123ZM88.0126 206.758C88.1821 206.758 88.3477 206.808 88.4885 206.902C88.6294 206.996 88.7391 207.13 88.8039 207.287C88.8687 207.443 88.8856 207.615 88.8525 207.782C88.8194 207.948 88.7378 208.1 88.6179 208.22C88.4981 208.34 88.3454 208.421 88.1792 208.454C88.013 208.487 87.8408 208.47 87.6843 208.405C87.5279 208.34 87.3942 208.23 87.3002 208.089C87.2062 207.948 87.1561 207.783 87.1563 207.613C87.1565 207.386 87.2468 207.169 87.4074 207.008C87.568 206.848 87.7857 206.758 88.0126 206.758ZM89.6773 209.123H91.0932V209.776H91.1128C91.3102 209.402 91.7914 209.008 92.5099 209.008C94.0058 209.005 94.2831 209.989 94.2831 211.266V213.876H92.806V211.563C92.806 211.013 92.7962 210.304 92.0385 210.304C91.2808 210.304 91.1519 210.904 91.1519 211.528V213.876H89.6773V209.123Z" fill="white"/>
<path d="M99.3984 210.361L161.092 210.361" stroke="#C4C4C4" stroke-width="3" stroke-linecap="round"/>
<path d="M95.0898 219.996H150.813" stroke="#C4C4C4" stroke-width="2" stroke-linecap="round"/>
<path d="M49.9805 271.733H105.703" stroke="#C4C4C4" stroke-width="2" stroke-linecap="round"/>
<path d="M49.9805 316.844H191.941" stroke="#C4C4C4" stroke-width="2" stroke-linecap="round"/>
<path d="M49.9805 324.794H191.941" stroke="#C4C4C4" stroke-width="2" stroke-linecap="round"/>
<path d="M49.9805 359.3H191.941" stroke="#C4C4C4" stroke-width="2" stroke-linecap="round"/>
<path d="M49.9805 367.265H191.941" stroke="#C4C4C4" stroke-width="2" stroke-linecap="round"/>
<path d="M49.9805 259.782H93.7628" stroke="#C4C4C4" stroke-width="3" stroke-linecap="round"/>
<path d="M49.9805 304.908H93.7628" stroke="#C4C4C4" stroke-width="3" stroke-linecap="round"/>
<path d="M49.9805 347.364H93.7628" stroke="#C4C4C4" stroke-width="3" stroke-linecap="round"/>
</g>
<g filter="url(#filter1_d_610_1932)">
<rect x="260.16" y="35.5156" width="183.416" height="333.338" rx="8.5" fill="#F4FAFF" stroke="black"/>
<circle cx="349.877" cy="125.237" r="42.4556" fill="#07DEAA"/>
<path d="M319.291 171.648H310.808C310.616 171.647 310.43 171.721 310.293 171.856C310.155 171.99 310.077 172.174 310.074 172.366V180.883C310.077 181.075 310.156 181.258 310.293 181.392C310.431 181.527 310.616 181.601 310.808 181.599H319.291C319.483 181.6 319.668 181.526 319.806 181.391C319.943 181.256 320.022 181.073 320.025 180.88V172.364C320.021 172.172 319.942 171.989 319.805 171.855C319.667 171.721 319.483 171.647 319.291 171.648Z" fill="#377AAE"/>
<path d="M311.547 175.383H313.024V180.135H311.547V175.383ZM312.286 173.018C312.455 173.018 312.621 173.068 312.762 173.162C312.903 173.256 313.013 173.39 313.077 173.546C313.142 173.703 313.159 173.875 313.126 174.041C313.093 174.207 313.011 174.36 312.891 174.48C312.772 174.6 312.619 174.681 312.453 174.714C312.286 174.747 312.114 174.73 311.958 174.665C311.801 174.6 311.668 174.49 311.574 174.349C311.48 174.208 311.43 174.043 311.43 173.873C311.43 173.646 311.52 173.429 311.681 173.268C311.841 173.108 312.059 173.018 312.286 173.018ZM313.951 175.383H315.367V176.035H315.386C315.584 175.662 316.065 175.268 316.783 175.268C318.279 175.265 318.556 176.249 318.556 177.525V180.135H317.079V177.823C317.079 177.273 317.07 176.564 316.312 176.564C315.554 176.564 315.425 177.164 315.425 177.787V180.135H313.951V175.383Z" fill="white"/>
<path d="M323.672 176.625L385.365 176.625" stroke="#C4C4C4" stroke-width="3" stroke-linecap="round"/>
<path d="M319.363 186.27H375.086" stroke="#C4C4C4" stroke-width="2" stroke-linecap="round"/>
<path d="M274.254 238.007H329.977" stroke="#C4C4C4" stroke-width="2" stroke-linecap="round"/>
<path d="M274.254 283.117H416.215" stroke="#C4C4C4" stroke-width="2" stroke-linecap="round"/>
<path d="M274.254 291.067H416.215" stroke="#C4C4C4" stroke-width="2" stroke-linecap="round"/>
<path d="M274.254 325.573H416.215" stroke="#C4C4C4" stroke-width="2" stroke-linecap="round"/>
<path d="M274.254 333.538H416.215" stroke="#C4C4C4" stroke-width="2" stroke-linecap="round"/>
<path d="M274.254 226.057H318.036" stroke="#C4C4C4" stroke-width="3" stroke-linecap="round"/>
<path d="M274.254 271.182H318.036" stroke="#C4C4C4" stroke-width="3" stroke-linecap="round"/>
<path d="M274.254 313.638H318.036" stroke="#C4C4C4" stroke-width="3" stroke-linecap="round"/>
</g>
<g filter="url(#filter2_d_610_1932)">
<rect x="149.844" y="104.805" width="183.416" height="333.338" rx="8.5" fill="#F4FAFF" stroke="black"/>
<circle cx="239.561" cy="194.526" r="42.4556" fill="#8C6EFE"/>
<path d="M208.974 240.925H200.492C200.299 240.923 200.114 240.997 199.976 241.132C199.839 241.266 199.76 241.45 199.758 241.643V250.159C199.761 250.351 199.839 250.535 199.977 250.669C200.115 250.803 200.3 250.877 200.492 250.875H208.974C209.167 250.877 209.352 250.802 209.489 250.667C209.627 250.533 209.706 250.349 209.708 250.157V241.64C209.705 241.448 209.626 241.265 209.488 241.132C209.351 240.998 209.166 240.923 208.974 240.925Z" fill="#0076B2"/>
<path d="M201.231 244.659H202.708V249.412H201.231V244.659ZM201.97 242.294C202.139 242.294 202.305 242.344 202.446 242.438C202.586 242.532 202.696 242.666 202.761 242.823C202.826 242.979 202.843 243.152 202.81 243.318C202.776 243.484 202.695 243.636 202.575 243.756C202.455 243.876 202.302 243.957 202.136 243.99C201.97 244.023 201.798 244.006 201.641 243.941C201.485 243.876 201.351 243.766 201.257 243.626C201.163 243.485 201.113 243.319 201.113 243.15C201.113 242.923 201.204 242.705 201.364 242.544C201.525 242.384 201.743 242.294 201.97 242.294ZM203.634 244.659H205.05V245.312H205.07C205.267 244.938 205.748 244.544 206.467 244.544C207.963 244.541 208.24 245.525 208.24 246.802V249.412H206.763V247.1C206.763 246.549 206.753 245.84 205.996 245.84C205.238 245.84 205.109 246.441 205.109 247.064V249.412H203.634V244.659Z" fill="white"/>
<path d="M213.355 245.902L275.049 245.902" stroke="#C4C4C4" stroke-width="3" stroke-linecap="round"/>
<path d="M209.047 255.559H264.77" stroke="#C4C4C4" stroke-width="2" stroke-linecap="round"/>
<path d="M163.938 307.296H219.66" stroke="#C4C4C4" stroke-width="2" stroke-linecap="round"/>
<path d="M163.938 352.406H305.898" stroke="#C4C4C4" stroke-width="2" stroke-linecap="round"/>
<path d="M163.938 360.356H305.898" stroke="#C4C4C4" stroke-width="2" stroke-linecap="round"/>
<path d="M163.938 394.862H305.898" stroke="#C4C4C4" stroke-width="2" stroke-linecap="round"/>
<path d="M163.938 402.827H305.898" stroke="#C4C4C4" stroke-width="2" stroke-linecap="round"/>
<path d="M163.938 295.345H207.72" stroke="#C4C4C4" stroke-width="3" stroke-linecap="round"/>
<path d="M163.938 340.471H207.72" stroke="#C4C4C4" stroke-width="3" stroke-linecap="round"/>
<path d="M163.938 382.927H207.72" stroke="#C4C4C4" stroke-width="3" stroke-linecap="round"/>
</g>
<path d="M146.317 422.724H237.132C243.324 422.724 247.784 416.651 246.028 410.625L202.661 261.109C201.499 257.1 197.869 254.348 193.765 254.348H102.95C96.7581 254.348 92.298 260.421 94.0536 266.447L137.421 415.963C138.607 419.972 142.213 422.724 146.317 422.724Z" fill="#1C2123"/>
<path d="M158.821 422.724H237.94C244.132 422.724 248.592 416.651 246.836 410.625L203.446 261.109C202.283 257.1 198.653 254.348 194.549 254.348H115.454C109.262 254.348 104.802 260.421 106.557 266.447L149.925 415.963C151.087 419.972 154.717 422.724 158.821 422.724Z" fill="#F26941"/>
<path d="M174.051 422.728H270.18C274.664 422.728 278.293 419.098 278.293 414.614C278.293 410.13 274.664 406.5 270.18 406.5H174.051C169.567 406.5 165.938 410.13 165.938 414.614C165.938 419.098 169.567 422.728 174.051 422.728Z" fill="#1C2123"/>
<path d="M161.211 531.373V539.559H238.906V531.373H161.211Z" fill="#1C2123"/>
<path d="M231.226 537.911C230.514 542.157 233.384 546.167 237.631 546.879C241.877 547.59 245.887 544.72 246.599 540.473C247.31 536.226 244.44 532.217 240.193 531.505C235.947 530.793 231.937 533.664 231.226 537.911Z" fill="#1C2123"/>
<path d="M196.987 534.721H205.172V421.457H196.987V534.721Z" fill="#1C2123"/>
<path d="M153.53 537.911C152.818 542.157 155.689 546.167 159.936 546.879C164.182 547.59 168.192 544.72 168.903 540.473C169.615 536.226 166.744 532.217 162.498 531.505C158.251 530.793 154.242 533.664 153.53 537.911Z" fill="#1C2123"/>
<path d="M148.879 422.728H245.008C249.492 422.728 253.122 419.098 253.122 414.614C253.122 410.13 249.492 406.5 245.008 406.5H148.879C144.395 406.5 140.766 410.13 140.766 414.614C140.766 419.098 144.395 422.728 148.879 422.728Z" fill="#1C2123"/>
<path d="M373.475 528.74L359.027 482.855L336.039 481.646L350.463 530.875L372.621 531.017L373.475 528.74Z" fill="#F9B384"/>
<path d="M347.235 521.356C347.235 521.356 366.238 529.162 375.158 516.849L414.279 540.621L341.328 540.147L347.235 521.356Z" fill="black"/>
<path d="M341.371 540.153L341.328 546.867L414.279 547.337L414.322 540.623L341.371 540.153Z" fill="#07DEAA"/>
<path d="M374.709 527.266C374.922 527.171 375.088 527.052 375.231 526.862C378.22 522.948 381.209 521.026 381.233 521.002C381.826 520.623 381.992 519.863 381.589 519.294C381.185 518.725 380.379 518.582 379.809 518.962C379.667 519.057 376.417 521.121 373.143 525.415C372.716 525.961 372.858 526.72 373.428 527.123C373.807 527.384 374.305 527.432 374.709 527.266Z" fill="#07DEAA"/>
<path d="M380.974 530.393C381.188 530.298 381.354 530.179 381.496 529.989C384.485 526.075 387.475 524.153 387.498 524.129C388.091 523.75 388.257 522.99 387.854 522.421C387.451 521.852 386.644 521.709 386.075 522.089C385.932 522.184 382.682 524.248 379.408 528.542C378.981 529.088 379.124 529.847 379.693 530.25C380.096 530.535 380.571 530.559 380.974 530.393Z" fill="#07DEAA"/>
<path d="M387.259 533.526C387.473 533.431 387.639 533.313 387.781 533.123C390.77 529.208 393.759 527.287 393.807 527.263C394.4 526.883 394.566 526.124 394.163 525.555C393.759 524.985 392.953 524.843 392.383 525.223C392.241 525.318 388.991 527.382 385.717 531.676C385.29 532.221 385.432 532.981 386.002 533.384C386.358 533.669 386.856 533.692 387.259 533.526Z" fill="#07DEAA"/>
<path d="M292.504 349.926L312.479 351.183C326.548 352.085 338.504 361.765 342.3 375.359L373.592 495.93L333.878 497.828L292.504 385.964V349.926Z" fill="#26289C"/>
<path d="M326.856 501.574H379.238L375.609 482.238H323.227L326.856 501.574Z" fill="#A0B0FF"/>
<path d="M295.207 528.741L294.543 483.474L271.555 482.24L272.195 530.877L294.353 531.019L295.207 528.741Z" fill="#F9B384"/>
<path d="M268.993 521.357C268.993 521.357 287.996 529.163 296.916 516.85L336.037 540.622L263.086 540.148L268.993 521.357Z" fill="black"/>
<path d="M263.11 540.161L263.066 546.875L336.017 547.345L336.06 540.631L263.11 540.161Z" fill="#07DEAA"/>
<path d="M296.443 527.267C296.656 527.172 296.823 527.053 296.965 526.863C299.954 522.949 302.943 521.027 302.967 521.003C303.56 520.624 303.726 519.864 303.323 519.295C302.92 518.726 302.113 518.583 301.544 518.963C301.401 519.058 298.151 521.122 294.877 525.416C294.45 525.962 294.593 526.721 295.162 527.124C295.541 527.385 296.04 527.433 296.443 527.267Z" fill="#07DEAA"/>
<path d="M302.705 530.394C302.918 530.299 303.084 530.18 303.227 529.99C306.216 526.076 309.205 524.154 309.229 524.13C309.822 523.751 309.988 522.991 309.585 522.422C309.181 521.853 308.375 521.71 307.805 522.09C307.663 522.185 304.413 524.249 301.139 528.543C300.712 529.089 300.854 529.848 301.424 530.251C301.827 530.536 302.301 530.56 302.705 530.394Z" fill="#07DEAA"/>
<path d="M308.993 533.527C309.207 533.432 309.373 533.314 309.515 533.124C312.505 529.209 315.494 527.288 315.541 527.264C316.134 526.884 316.3 526.125 315.897 525.556C315.494 524.986 314.687 524.844 314.118 525.224C313.975 525.318 310.725 527.383 307.451 531.677C307.024 532.222 307.167 532.982 307.736 533.385C308.116 533.67 308.59 533.693 308.993 533.527Z" fill="#07DEAA"/>
<path d="M164.347 339.669L237.583 348.518H284.318C297.936 348.518 309.039 359.432 309.228 373.05C309.845 414.925 306.619 501.948 304.65 501.545C301.993 501.023 263.75 501.545 263.75 501.545L259.859 406.455L196.113 406.977C189.542 405.15 146.27 398.744 164.347 339.669Z" fill="#3335CF"/>
<path d="M259.274 501.565H311.656V482.253H259.274V501.565Z" fill="#A0B0FF"/>
<path d="M305.62 304.802L263.605 298.729L271.126 319.939L309.155 321.718L305.62 304.802Z" fill="#F9B384"/>
<path d="M305.503 302.764C298.243 307.438 295.942 314.342 302.846 319.964C309.749 325.564 321.232 326.323 328.491 321.625C335.751 316.951 335.988 310.047 329.084 304.425C322.181 298.825 312.762 298.066 305.503 302.764Z" fill="#F9B384"/>
<path d="M294.731 296.998L253.309 293.178C245.765 291.92 236.821 297.852 235.065 305.278C233.049 313.771 238.932 322.122 247.615 323.071L290.508 320.96L294.731 296.998Z" fill="#07DEAA"/>
<path d="M259.264 240.536C259.264 240.536 274.399 266.112 273.237 317.358L237.105 324.784L241.186 249.101L259.264 240.536Z" fill="#07DEAA"/>
<path d="M221.138 218.519C221.138 218.519 188.138 217.475 177.226 241.295C166.313 265.115 157.891 344.831 157.891 344.831C157.891 344.831 188.518 362.981 244.91 348.532L259.262 240.536C259.262 240.536 244.103 217.356 221.138 218.519Z" fill="#07DEAA"/>
<path d="M252.976 256.406C252.478 291.78 244.602 312.184 244.602 312.184" stroke="black" stroke-width="0.9762" stroke-miterlimit="10"/>
<path d="M156.635 294.585L177.915 239.898C177.963 239.78 180.549 236.506 180.596 236.411L180.62 236.387C183.396 231.381 188.71 227.988 194.83 227.988C203.798 227.988 211.081 235.272 211.081 244.24C211.081 246.945 214.379 247.846 213.193 250.1C213.145 250.171 211.437 254.418 211.413 254.489L190.299 309.199C186.314 316.198 170.419 318.855 163.23 315.225C155.639 311.406 152.65 302.082 156.635 294.585Z" fill="#07DEAA"/>
<path d="M195.422 288.985L208.399 255.58" stroke="black" stroke-width="0.9762" stroke-miterlimit="10"/>
<path d="M252.101 300.681L210.062 294.607L217.583 315.818L255.612 317.597L252.101 300.681Z" fill="#F9B384"/>
<path d="M251.96 298.641C244.7 303.315 242.399 310.219 249.303 315.841C256.206 321.44 267.689 322.2 274.948 317.502C282.208 312.828 282.445 305.924 275.541 300.301C268.638 294.702 259.219 293.967 251.96 298.641Z" fill="#F9B384"/>
<path d="M241.188 292.892L173.528 287.127C165.984 285.87 157.04 291.801 155.284 299.227C153.268 307.72 159.151 316.072 167.834 317.021L236.965 316.878L241.188 292.892Z" fill="#07DEAA"/>
<path d="M240.809 299.039L241.663 292.918L186.434 288.221" stroke="black" stroke-width="0.9762" stroke-miterlimit="10"/>
<path d="M258.124 172.326C258.124 172.326 277.151 158.163 268.444 145.043C259.737 131.923 243.961 143.287 243.961 143.287L258.124 172.326Z" fill="#1F2326"/>
<path d="M242.873 139.818C242.873 139.818 189.281 132.226 212.863 173.745L218.96 156.9L242.873 139.818Z" fill="#1F2326"/>
<path d="M259.146 151.133C259.146 151.133 268.113 158.63 256.868 175.119L253.855 154.098L259.146 151.133Z" fill="#1F2326"/>
<path d="M242.801 196.501L235.945 222.408C234.308 229.502 229.516 227.913 225.91 227.794C220.288 227.462 214.001 224.947 214.523 218.873L222.684 185.967L242.801 196.501Z" fill="#F9B384"/>
<path d="M236.824 204.472C248.045 205.041 257.748 196.358 258.531 186.915L260.073 167.152C261.07 155.314 252.766 144.827 241.355 143.451C229.659 142.051 216.991 150.45 215.615 162.55L214.595 177.971C213.646 191.85 223.444 202.859 236.824 204.472Z" fill="#F9B384"/>
<path d="M246.598 182.479L246.93 188.054H243.988" stroke="black" stroke-width="0.5232" stroke-miterlimit="10" stroke-linecap="round" stroke-linejoin="round"/>
<path d="M260.142 162.433C260.142 162.433 260.877 157.237 250.699 155.979C240.498 154.722 227.403 155.576 220.143 164.663L219.977 178.945L210.867 169.953L215.659 148.672L242.871 139.799L259.169 151.139L260.142 162.433Z" fill="#1F2326"/>
<path d="M250.936 143.948C250.936 143.948 253.356 137.756 244.816 134.292C237.461 131.326 229.87 132.584 213.477 143.687L250.936 143.948Z" fill="#1F2326"/>
<path d="M234.995 220.768C234.995 220.768 236.846 221.172 242.8 224.659C242.8 224.659 245.766 233.983 228.661 232.726C212.126 231.516 205.934 220.294 205.934 220.294C205.934 220.294 212.695 217.898 220.334 218.491C227.973 219.06 234.995 220.768 234.995 220.768Z" fill="#F9B384"/>
<path d="M220.593 168.91C220.593 168.91 232.479 166.134 227.9 154.533C223.321 142.931 217.723 157.688 217.723 157.688L220.593 168.91Z" fill="#1F2326"/>
<path d="M256.609 195.601C256.609 194.32 255.826 193.205 254.663 192.683C253.074 191.971 250.369 191.022 246.384 190.405C241.449 189.622 234.332 191.188 230.512 192.208C228.875 192.635 227.12 191.876 226.361 190.358C223.822 185.28 219.149 173.37 222.707 159.562L217.037 163.667L215.282 172.784C215.282 172.784 217.681 180.087 215.282 185.992C215.282 185.992 214.95 205.518 233.027 209.029C238.175 210.026 244.296 209.172 249.041 206.894C253.003 204.972 256.609 200.607 256.609 195.601Z" fill="#1F2326"/>
<path d="M303.677 312.568H362.916C364.221 312.568 365.288 313.636 365.288 314.965C365.288 316.293 364.221 317.337 362.916 317.337H303.677C302.349 317.337 301.281 316.269 301.281 314.965C301.281 313.636 302.349 312.568 303.677 312.568Z" fill="#121314"/>
<path d="M273.263 312.568H315.871C317.2 312.568 318.244 313.636 318.244 314.965C318.244 316.293 317.176 317.337 315.871 317.337H273.263C271.935 317.337 270.867 316.269 270.867 314.965C270.867 313.636 271.935 312.568 273.263 312.568Z" fill="#455157"/>
<path d="M311.602 294.601H436.603C439.687 294.601 442.178 292.11 442.178 289.026V209.144C442.178 206.059 439.687 203.568 436.603 203.568H311.602C308.518 203.568 306.027 206.059 306.027 209.144V289.026C306.027 292.087 308.518 294.601 311.602 294.601Z" fill="#455157"/>
<path d="M314.567 294.601H439.568C442.652 294.601 445.143 292.11 445.143 289.026V209.144C445.143 206.059 442.652 203.568 439.568 203.568H314.567C311.483 203.568 308.992 206.059 308.992 209.144V289.026C309.016 292.087 311.507 294.601 314.567 294.601Z" fill="#377AAE"/>
<path d="M368.3 245.895L335.68 294.602H382.605L368.3 245.895Z" fill="#121314"/>
<path d="M391.69 244.66H370.694C368.82 244.66 367.397 246.392 367.776 248.219L381.323 314.957C381.607 316.334 382.817 317.33 384.241 317.33H406.28C408.178 317.33 409.602 315.574 409.198 313.724L394.608 246.985C394.3 245.633 393.09 244.66 391.69 244.66Z" fill="#0D4774"/>
<path d="M361.04 312.562H399.758V317.331H361.04C359.712 317.331 358.668 316.264 358.668 314.959C358.668 313.63 359.736 312.562 361.04 312.562Z" fill="#0D4774"/>
<path d="M425.902 324.784V546.922" stroke="#F26941" stroke-width="1.9524" stroke-miterlimit="10"/>
<path d="M219.219 324.784V546.922" stroke="#F26941" stroke-width="1.9524" stroke-miterlimit="10"/>
<path d="M255.068 332.216H478.262V317.364H255.068V332.216Z" fill="#F26941"/>
<path d="M171.772 332.216H255.066V317.364H171.772V332.216Z" fill="#CD4118"/>
<path d="M534.63 545.67L49.7148 547.995" stroke="#BAAEA7" stroke-width="0.9762" stroke-miterlimit="10"/>
<path d="M217.087 175.682C217.087 175.682 214.13 165.958 207.63 168.391C201.126 170.82 204.589 183.479 217.426 187L217.087 175.682Z" fill="#F9B384"/>
<path d="M213.95 176.99C213.811 176.121 213.421 175.308 212.966 174.569C212.501 173.837 211.946 173.155 211.303 172.674C210.66 172.199 209.963 171.964 209.375 172.298C208.756 172.623 208.268 173.413 207.842 174.216L207.426 174.063C207.607 173.12 207.936 172.078 208.874 171.394C209.336 171.053 209.969 170.932 210.519 171.037C211.071 171.142 211.554 171.394 211.961 171.706C212.776 172.34 213.373 173.161 213.805 174.06C214.224 174.955 214.529 175.965 214.393 177L213.95 176.99Z" fill="#E28B6D"/>
<path d="M255.78 171.804C251.14 171.805 247.379 175.854 247.379 180.848C247.38 185.842 251.142 189.89 255.782 189.89C260.422 189.889 264.183 185.84 264.183 180.846C264.182 175.852 260.42 171.804 255.78 171.804Z" stroke="white" stroke-width="0.5379" stroke-miterlimit="10"/>
<path d="M224.525 178.745C224.793 173.427 229.314 169.35 234.612 169.607C239.929 169.875 244.006 174.396 243.749 179.693C243.482 185.01 238.96 189.088 233.663 188.831C228.334 188.583 224.257 184.062 224.525 178.745Z" stroke="white" stroke-width="0.5583" stroke-miterlimit="10"/>
<path d="M247.488 179.492L243.786 179.311" stroke="white" stroke-width="0.5583" stroke-miterlimit="10"/>
<path d="M224.346 179.249L216.709 175.242" stroke="white" stroke-width="0.5583" stroke-miterlimit="10"/>
<path d="M237.192 179.937C237.382 178.773 236.85 177.717 236.005 177.58C235.159 177.442 234.319 178.274 234.129 179.439C233.939 180.603 234.471 181.658 235.316 181.796C236.162 181.934 237.002 181.101 237.192 179.937Z" fill="black"/>
<path d="M231.426 175.857C232.028 175.289 232.744 174.819 233.549 174.482C234.35 174.143 235.257 173.955 236.18 174.009C237.102 174.061 238.006 174.383 238.726 174.887C239.452 175.389 240.011 176.042 240.426 176.743L240.075 177C239.449 176.498 238.847 176.028 238.188 175.677C237.532 175.329 236.827 175.115 236.101 175.07C234.634 174.964 233.144 175.515 231.686 176.196L231.426 175.857Z" fill="black"/>
<path d="M255.692 179.937C255.882 178.773 255.35 177.717 254.505 177.58C253.659 177.442 252.819 178.274 252.629 179.439C252.439 180.603 252.971 181.658 253.816 181.796C254.662 181.934 255.502 181.101 255.692 179.937Z" fill="black"/>
<path d="M250.426 175.857C251.028 175.289 251.744 174.819 252.549 174.482C253.35 174.143 254.257 173.955 255.18 174.009C256.102 174.061 257.006 174.383 257.726 174.887C258.452 175.389 259.011 176.042 259.426 176.743L259.075 177C258.449 176.498 257.847 176.028 257.188 175.677C256.532 175.329 255.827 175.115 255.101 175.07C253.634 174.964 252.144 175.515 250.686 176.196L250.426 175.857Z" fill="black"/>
<path d="M235.426 197L247.426 197.749C247.426 197.752 240.731 205.538 235.426 197Z" fill="white"/>
<path fill-rule="evenodd" clip-rule="evenodd" d="M6 96C3.79086 96 2 97.7909 2 100V119.351C2 121.56 3.79086 123.351 6 123.351H8.30988C8.31048 123.351 8.31107 123.352 8.31167 123.352L13.5714 134.398L16.2013 123.352C16.1998 123.352 16.1984 123.351 16.197 123.351H79C81.2091 123.351 83 121.56 83 119.351V100C83 97.7909 81.2091 96 79 96H6Z" fill="#F26941"/>
<path d="M8.30988 123.351L8.66386 122.998L8.51734 122.851H8.30988V123.351ZM8.31167 123.352L8.7631 123.137L8.72609 123.06L8.66523 122.999L8.31167 123.352ZM13.5714 134.398L13.12 134.613L13.7295 135.893L14.0578 134.514L13.5714 134.398ZM16.2013 123.352L16.6877 123.468L16.7862 123.054L16.3935 122.891L16.2013 123.352ZM16.197 123.351V122.851L16.0044 123.812L16.197 123.351ZM2.5 100C2.5 98.067 4.067 96.5 6 96.5V95.5C3.51472 95.5 1.5 97.5147 1.5 100H2.5ZM2.5 119.351V100H1.5V119.351H2.5ZM6 122.851C4.067 122.851 2.5 121.284 2.5 119.351H1.5C1.5 121.836 3.51472 123.851 6 123.851V122.851ZM8.30988 122.851H6V123.851H8.30988V122.851ZM8.66523 122.999C8.66459 122.998 8.66421 122.998 8.66386 122.998L7.9559 123.704C7.95675 123.705 7.95756 123.705 7.95812 123.706L8.66523 122.999ZM14.0228 134.183L8.7631 123.137L7.86024 123.567L13.12 134.613L14.0228 134.183ZM15.7149 123.237L13.085 134.282L14.0578 134.514L16.6877 123.468L15.7149 123.237ZM16.0044 123.812C16.0061 123.813 16.0079 123.814 16.009 123.814L16.3935 122.891C16.3918 122.89 16.3908 122.89 16.3895 122.889L16.0044 123.812ZM79 122.851H16.197V123.851H79V122.851ZM82.5 119.351C82.5 121.284 80.933 122.851 79 122.851V123.851C81.4853 123.851 83.5 121.836 83.5 119.351H82.5ZM82.5 100V119.351H83.5V100H82.5ZM79 96.5C80.933 96.5 82.5 98.067 82.5 100H83.5C83.5 97.5147 81.4853 95.5 79 95.5V96.5ZM6 96.5H79V95.5H6V96.5Z" fill="black"/>
<path fill-rule="evenodd" clip-rule="evenodd" d="M414 150C411.239 150 409 152.239 409 155V179C409 181.761 411.239 184 414 184H416.712C416.772 184.069 416.832 184.133 416.89 184.191L423.465 197.998L426.753 184.191C426.607 184.13 426.451 184.066 426.288 184H469C471.761 184 474 181.761 474 179V155C474 152.239 471.761 150 469 150H414Z" fill="#F26941"/>
<path d="M416.712 184L417.089 183.672L416.94 183.5H416.712V184ZM416.89 184.191L417.341 183.976L417.304 183.898L417.244 183.837L416.89 184.191ZM423.465 197.998L423.014 198.213L423.623 199.493L423.951 198.114L423.465 197.998ZM426.753 184.191L427.239 184.307L427.337 183.893L426.945 183.729L426.753 184.191ZM426.288 184V183.5L426.1 184.463L426.288 184ZM409.5 155C409.5 152.515 411.515 150.5 414 150.5V149.5C410.962 149.5 408.5 151.962 408.5 155H409.5ZM409.5 179V155H408.5V179H409.5ZM414 183.5C411.515 183.5 409.5 181.485 409.5 179H408.5C408.5 182.038 410.962 184.5 414 184.5V183.5ZM416.712 183.5H414V184.5H416.712V183.5ZM417.244 183.837C417.194 183.788 417.142 183.732 417.089 183.672L416.335 184.328C416.403 184.406 416.47 184.478 416.536 184.544L417.244 183.837ZM423.916 197.783L417.341 183.976L416.439 184.406L423.014 198.213L423.916 197.783ZM426.266 184.075L422.979 197.883L423.951 198.114L427.239 184.307L426.266 184.075ZM426.1 184.463C426.262 184.529 426.416 184.592 426.56 184.652L426.945 183.729C426.797 183.668 426.64 183.603 426.476 183.537L426.1 184.463ZM469 183.5H426.288V184.5H469V183.5ZM473.5 179C473.5 181.485 471.485 183.5 469 183.5V184.5C472.038 184.5 474.5 182.038 474.5 179H473.5ZM473.5 155V179H474.5V155H473.5ZM469 150.5C471.485 150.5 473.5 152.515 473.5 155H474.5C474.5 151.962 472.038 149.5 469 149.5V150.5ZM414 150.5H469V149.5H414V150.5Z" fill="black"/>
<path d="M16.44 108.096C16.312 107.861 16.136 107.683 15.912 107.56C15.688 107.437 15.4267 107.376 15.128 107.376C14.7973 107.376 14.504 107.451 14.248 107.6C13.992 107.749 13.792 107.963 13.648 108.24C13.504 108.517 13.432 108.837 13.432 109.2C13.432 109.573 13.504 109.899 13.648 110.176C13.7973 110.453 14.0027 110.667 14.264 110.816C14.5253 110.965 14.8293 111.04 15.176 111.04C15.6027 111.04 15.952 110.928 16.224 110.704C16.496 110.475 16.6747 110.157 16.76 109.752H14.84V108.896H17.864V109.872C17.7893 110.261 17.6293 110.621 17.384 110.952C17.1387 111.283 16.8213 111.549 16.432 111.752C16.048 111.949 15.616 112.048 15.136 112.048C14.5973 112.048 14.1093 111.928 13.672 111.688C13.24 111.443 12.8987 111.104 12.648 110.672C12.4027 110.24 12.28 109.749 12.28 109.2C12.28 108.651 12.4027 108.16 12.648 107.728C12.8987 107.291 13.24 106.952 13.672 106.712C14.1093 106.467 14.5947 106.344 15.128 106.344C15.7573 106.344 16.304 106.499 16.768 106.808C17.232 107.112 17.552 107.541 17.728 108.096H16.44ZM19.8126 108.256C19.9566 108.021 20.1433 107.837 20.3726 107.704C20.6073 107.571 20.874 107.504 21.1726 107.504V108.68H20.8766C20.5246 108.68 20.258 108.763 20.0766 108.928C19.9006 109.093 19.8126 109.381 19.8126 109.792V112H18.6926V107.568H19.8126V108.256ZM26.047 109.688C26.047 109.848 26.0363 109.992 26.015 110.12H22.775C22.8017 110.44 22.9137 110.691 23.111 110.872C23.3083 111.053 23.551 111.144 23.839 111.144C24.255 111.144 24.551 110.965 24.727 110.608H25.935C25.807 111.035 25.5617 111.387 25.199 111.664C24.8363 111.936 24.391 112.072 23.863 112.072C23.4363 112.072 23.0523 111.979 22.711 111.792C22.375 111.6 22.111 111.331 21.919 110.984C21.7323 110.637 21.639 110.237 21.639 109.784C21.639 109.325 21.7323 108.923 21.919 108.576C22.1057 108.229 22.367 107.963 22.703 107.776C23.039 107.589 23.4257 107.496 23.863 107.496C24.2843 107.496 24.6603 107.587 24.991 107.768C25.327 107.949 25.5857 108.208 25.767 108.544C25.9537 108.875 26.047 109.256 26.047 109.688ZM24.887 109.368C24.8817 109.08 24.7777 108.851 24.575 108.68C24.3723 108.504 24.1243 108.416 23.831 108.416C23.5537 108.416 23.319 108.501 23.127 108.672C22.9403 108.837 22.8257 109.069 22.783 109.368H24.887ZM26.5765 109.768C26.5765 109.32 26.6645 108.923 26.8405 108.576C27.0218 108.229 27.2645 107.963 27.5685 107.776C27.8778 107.589 28.2218 107.496 28.6005 107.496C28.9312 107.496 29.2192 107.563 29.4645 107.696C29.7152 107.829 29.9152 107.997 30.0645 108.2V107.568H31.1925V112H30.0645V111.352C29.9205 111.56 29.7205 111.733 29.4645 111.872C29.2138 112.005 28.9232 112.072 28.5925 112.072C28.2192 112.072 27.8778 111.976 27.5685 111.784C27.2645 111.592 27.0218 111.323 26.8405 110.976C26.6645 110.624 26.5765 110.221 26.5765 109.768ZM30.0645 109.784C30.0645 109.512 30.0112 109.28 29.9045 109.088C29.7978 108.891 29.6538 108.741 29.4725 108.64C29.2912 108.533 29.0965 108.48 28.8885 108.48C28.6805 108.48 28.4885 108.531 28.3125 108.632C28.1365 108.733 27.9925 108.883 27.8805 109.08C27.7738 109.272 27.7205 109.501 27.7205 109.768C27.7205 110.035 27.7738 110.269 27.8805 110.472C27.9925 110.669 28.1365 110.821 28.3125 110.928C28.4938 111.035 28.6858 111.088 28.8885 111.088C29.0965 111.088 29.2912 111.037 29.4725 110.936C29.6538 110.829 29.7978 110.68 29.9045 110.488C30.0112 110.291 30.0645 110.056 30.0645 109.784ZM33.5904 108.488V110.632C33.5904 110.781 33.625 110.891 33.6944 110.96C33.769 111.024 33.8917 111.056 34.0624 111.056H34.5824V112H33.8784C32.9344 112 32.4624 111.541 32.4624 110.624V108.488H31.9344V107.568H32.4624V106.472H33.5904V107.568H34.5824V108.488H33.5904ZM39.2222 112.056C38.8329 112.056 38.4809 111.989 38.1662 111.856C37.8569 111.723 37.6115 111.531 37.4302 111.28C37.2489 111.029 37.1555 110.733 37.1502 110.392H38.3502C38.3662 110.621 38.4462 110.803 38.5902 110.936C38.7395 111.069 38.9422 111.136 39.1982 111.136C39.4595 111.136 39.6649 111.075 39.8142 110.952C39.9635 110.824 40.0382 110.659 40.0382 110.456C40.0382 110.291 39.9875 110.155 39.8862 110.048C39.7849 109.941 39.6569 109.859 39.5022 109.8C39.3529 109.736 39.1449 109.667 38.8782 109.592C38.5155 109.485 38.2195 109.381 37.9902 109.28C37.7662 109.173 37.5715 109.016 37.4062 108.808C37.2462 108.595 37.1662 108.312 37.1662 107.96C37.1662 107.629 37.2489 107.341 37.4142 107.096C37.5795 106.851 37.8115 106.664 38.1102 106.536C38.4089 106.403 38.7502 106.336 39.1342 106.336C39.7102 106.336 40.1769 106.477 40.5342 106.76C40.8969 107.037 41.0969 107.427 41.1342 107.928H39.9022C39.8915 107.736 39.8089 107.579 39.6542 107.456C39.5049 107.328 39.3049 107.264 39.0542 107.264C38.8355 107.264 38.6595 107.32 38.5262 107.432C38.3982 107.544 38.3342 107.707 38.3342 107.92C38.3342 108.069 38.3822 108.195 38.4782 108.296C38.5795 108.392 38.7022 108.472 38.8462 108.536C38.9955 108.595 39.2035 108.664 39.4702 108.744C39.8329 108.851 40.1289 108.957 40.3582 109.064C40.5875 109.171 40.7849 109.331 40.9502 109.544C41.1155 109.757 41.1982 110.037 41.1982 110.384C41.1982 110.683 41.1209 110.96 40.9662 111.216C40.8115 111.472 40.5849 111.677 40.2862 111.832C39.9875 111.981 39.6329 112.056 39.2222 112.056ZM46.2892 109.688C46.2892 109.848 46.2785 109.992 46.2572 110.12H43.0172C43.0439 110.44 43.1559 110.691 43.3532 110.872C43.5505 111.053 43.7932 111.144 44.0812 111.144C44.4972 111.144 44.7932 110.965 44.9692 110.608H46.1772C46.0492 111.035 45.8039 111.387 45.4412 111.664C45.0785 111.936 44.6332 112.072 44.1052 112.072C43.6785 112.072 43.2945 111.979 42.9532 111.792C42.6172 111.6 42.3532 111.331 42.1612 110.984C41.9745 110.637 41.8812 110.237 41.8812 109.784C41.8812 109.325 41.9745 108.923 42.1612 108.576C42.3479 108.229 42.6092 107.963 42.9452 107.776C43.2812 107.589 43.6679 107.496 44.1052 107.496C44.5265 107.496 44.9025 107.587 45.2332 107.768C45.5692 107.949 45.8279 108.208 46.0092 108.544C46.1959 108.875 46.2892 109.256 46.2892 109.688ZM45.1292 109.368C45.1239 109.08 45.0199 108.851 44.8172 108.68C44.6145 108.504 44.3665 108.416 44.0732 108.416C43.7959 108.416 43.5612 108.501 43.3692 108.672C43.1825 108.837 43.0679 109.069 43.0252 109.368H45.1292ZM48.2267 106.08V112H47.1067V106.08H48.2267ZM53.4533 109.688C53.4533 109.848 53.4426 109.992 53.4213 110.12H50.1813C50.2079 110.44 50.3199 110.691 50.5173 110.872C50.7146 111.053 50.9573 111.144 51.2453 111.144C51.6613 111.144 51.9573 110.965 52.1333 110.608H53.3413C53.2133 111.035 52.9679 111.387 52.6053 111.664C52.2426 111.936 51.7973 112.072 51.2693 112.072C50.8426 112.072 50.4586 111.979 50.1173 111.792C49.7813 111.6 49.5173 111.331 49.3253 110.984C49.1386 110.637 49.0452 110.237 49.0452 109.784C49.0452 109.325 49.1386 108.923 49.3253 108.576C49.5119 108.229 49.7733 107.963 50.1093 107.776C50.4453 107.589 50.8319 107.496 51.2693 107.496C51.6906 107.496 52.0666 107.587 52.3973 107.768C52.7333 107.949 52.9919 108.208 53.1733 108.544C53.3599 108.875 53.4533 109.256 53.4533 109.688ZM52.2933 109.368C52.2879 109.08 52.1839 108.851 51.9813 108.68C51.7786 108.504 51.5306 108.416 51.2373 108.416C50.9599 108.416 50.7253 108.501 50.5333 108.672C50.3466 108.837 50.2319 109.069 50.1893 109.368H52.2933ZM53.9827 109.784C53.9827 109.325 54.0761 108.925 54.2628 108.584C54.4494 108.237 54.7081 107.971 55.0388 107.784C55.3694 107.592 55.7481 107.496 56.1748 107.496C56.7241 107.496 57.1774 107.635 57.5348 107.912C57.8974 108.184 58.1401 108.568 58.2628 109.064H57.0548C56.9908 108.872 56.8814 108.723 56.7268 108.616C56.5774 108.504 56.3908 108.448 56.1668 108.448C55.8468 108.448 55.5934 108.565 55.4068 108.8C55.2201 109.029 55.1268 109.357 55.1268 109.784C55.1268 110.205 55.2201 110.533 55.4068 110.768C55.5934 110.997 55.8468 111.112 56.1668 111.112C56.6201 111.112 56.9161 110.909 57.0548 110.504H58.2628C58.1401 110.984 57.8974 111.365 57.5348 111.648C57.1721 111.931 56.7188 112.072 56.1748 112.072C55.7481 112.072 55.3694 111.979 55.0388 111.792C54.7081 111.6 54.4494 111.333 54.2628 110.992C54.0761 110.645 53.9827 110.243 53.9827 109.784ZM60.3873 108.488V110.632C60.3873 110.781 60.4219 110.891 60.4913 110.96C60.5659 111.024 60.6886 111.056 60.8593 111.056H61.3793V112H60.6753C59.7313 112 59.2593 111.541 59.2593 110.624V108.488H58.7313V107.568H59.2593V106.472H60.3873V107.568H61.3793V108.488H60.3873ZM62.7528 107.04C62.5555 107.04 62.3901 106.979 62.2568 106.856C62.1288 106.728 62.0648 106.571 62.0648 106.384C62.0648 106.197 62.1288 106.043 62.2568 105.92C62.3901 105.792 62.5555 105.728 62.7528 105.728C62.9501 105.728 63.1128 105.792 63.2408 105.92C63.3741 106.043 63.4408 106.197 63.4408 106.384C63.4408 106.571 63.3741 106.728 63.2408 106.856C63.1128 106.979 62.9501 107.04 62.7528 107.04ZM63.3048 107.568V112H62.1848V107.568H63.3048ZM66.3794 112.072C65.9527 112.072 65.5687 111.979 65.2274 111.792C64.886 111.6 64.6167 111.331 64.4194 110.984C64.2274 110.637 64.1314 110.237 64.1314 109.784C64.1314 109.331 64.23 108.931 64.4274 108.584C64.63 108.237 64.9047 107.971 65.2514 107.784C65.598 107.592 65.9847 107.496 66.4114 107.496C66.838 107.496 67.2247 107.592 67.5714 107.784C67.918 107.971 68.19 108.237 68.3874 108.584C68.59 108.931 68.6914 109.331 68.6914 109.784C68.6914 110.237 68.5874 110.637 68.3794 110.984C68.1767 111.331 67.8994 111.6 67.5474 111.792C67.2007 111.979 66.8114 112.072 66.3794 112.072ZM66.3794 111.096C66.582 111.096 66.7714 111.048 66.9474 110.952C67.1287 110.851 67.2727 110.701 67.3794 110.504C67.486 110.307 67.5394 110.067 67.5394 109.784C67.5394 109.363 67.4274 109.04 67.2034 108.816C66.9847 108.587 66.7154 108.472 66.3954 108.472C66.0754 108.472 65.806 108.587 65.5874 108.816C65.374 109.04 65.2674 109.363 65.2674 109.784C65.2674 110.205 65.3714 110.531 65.5794 110.76C65.7927 110.984 66.0594 111.096 66.3794 111.096ZM71.9689 107.504C72.4969 107.504 72.9236 107.672 73.2489 108.008C73.5743 108.339 73.7369 108.803 73.7369 109.4V112H72.6169V109.552C72.6169 109.2 72.5289 108.931 72.3529 108.744C72.1769 108.552 71.9369 108.456 71.6329 108.456C71.3236 108.456 71.0783 108.552 70.8969 108.744C70.7209 108.931 70.6329 109.2 70.6329 109.552V112H69.5129V107.568H70.6329V108.12C70.7823 107.928 70.9716 107.779 71.2009 107.672C71.4356 107.56 71.6916 107.504 71.9689 107.504Z" fill="white"/>
<defs>
<filter id="filter0_d_610_1932" x="0.386719" y="33.7422" width="254.418" height="404.338" filterUnits="userSpaceOnUse" color-interpolation-filters="sRGB">
<feFlood flood-opacity="0" result="BackgroundImageFix"/>
<feColorMatrix in="SourceAlpha" type="matrix" values="0 0 0 0 0 0 0 0 0 0 0 0 0 0 0 0 0 0 127 0" result="hardAlpha"/>
<feOffset/>
<feGaussianBlur stdDeviation="17.5"/>
<feComposite in2="hardAlpha" operator="out"/>
<feColorMatrix type="matrix" values="0 0 0 0 0 0 0 0 0 0 0 0 0 0 0 0 0 0 0.1 0"/>
<feBlend mode="normal" in2="BackgroundImageFix" result="effect1_dropShadow_610_1932"/>
<feBlend mode="normal" in="SourceGraphic" in2="effect1_dropShadow_610_1932" result="shape"/>
</filter>
<filter id="filter1_d_610_1932" x="224.66" y="0.015625" width="254.418" height="404.338" filterUnits="userSpaceOnUse" color-interpolation-filters="sRGB">
<feFlood flood-opacity="0" result="BackgroundImageFix"/>
<feColorMatrix in="SourceAlpha" type="matrix" values="0 0 0 0 0 0 0 0 0 0 0 0 0 0 0 0 0 0 127 0" result="hardAlpha"/>
<feOffset/>
<feGaussianBlur stdDeviation="17.5"/>
<feComposite in2="hardAlpha" operator="out"/>
<feColorMatrix type="matrix" values="0 0 0 0 0 0 0 0 0 0 0 0 0 0 0 0 0 0 0.1 0"/>
<feBlend mode="normal" in2="BackgroundImageFix" result="effect1_dropShadow_610_1932"/>
<feBlend mode="normal" in="SourceGraphic" in2="effect1_dropShadow_610_1932" result="shape"/>
</filter>
<filter id="filter2_d_610_1932" x="114.344" y="69.3047" width="254.418" height="404.338" filterUnits="userSpaceOnUse" color-interpolation-filters="sRGB">
<feFlood flood-opacity="0" result="BackgroundImageFix"/>
<feColorMatrix in="SourceAlpha" type="matrix" values="0 0 0 0 0 0 0 0 0 0 0 0 0 0 0 0 0 0 127 0" result="hardAlpha"/>
<feOffset/>
<feGaussianBlur stdDeviation="17.5"/>
<feComposite in2="hardAlpha" operator="out"/>
<feColorMatrix type="matrix" values="0 0 0 0 0 0 0 0 0 0 0 0 0 0 0 0 0 0 0.15 0"/>
<feBlend mode="normal" in2="BackgroundImageFix" result="effect1_dropShadow_610_1932"/>
<feBlend mode="normal" in="SourceGraphic" in2="effect1_dropShadow_610_1932" result="shape"/>
</filter>
</defs>
</svg>
