<svg width="498" height="527" viewBox="0 0 498 527" fill="none" xmlns="http://www.w3.org/2000/svg">
<circle cx="251.38" cy="266.977" r="206.957" transform="rotate(1.98159 251.38 266.977)" stroke="black" stroke-width="2" stroke-dasharray="10 10"/>
<g filter="url(#filter0_d_610_1467)">
<rect x="36.3789" y="125.523" width="201.283" height="365.728" rx="8.5" fill="#F4FAFF" stroke="black"/>
<circle cx="134.838" cy="223.981" r="46.5686" fill="#8C6EFE"/>
<path d="M101.289 274.885H91.9849C91.7737 274.883 91.5704 274.964 91.4195 275.112C91.2685 275.26 91.1823 275.461 91.1797 275.672V285.014C91.1828 285.225 91.2692 285.426 91.4201 285.573C91.571 285.72 91.7741 285.801 91.9849 285.799H101.289C101.5 285.801 101.703 285.719 101.854 285.571C102.005 285.424 102.091 285.222 102.094 285.011V275.669C102.09 275.459 102.004 275.258 101.853 275.112C101.702 274.965 101.499 274.883 101.289 274.885Z" fill="#0076B2"/>
<path d="M92.7968 278.978H94.417V284.191H92.7968V278.978ZM93.6073 276.384C93.7932 276.384 93.9748 276.439 94.1293 276.542C94.2838 276.645 94.4042 276.792 94.4753 276.964C94.5463 277.136 94.5649 277.324 94.5286 277.507C94.4923 277.689 94.4027 277.856 94.2712 277.988C94.1398 278.119 93.9723 278.208 93.79 278.245C93.6078 278.281 93.4189 278.262 93.2472 278.191C93.0756 278.12 92.929 277.999 92.8258 277.844C92.7227 277.69 92.6678 277.508 92.668 277.322C92.6682 277.073 92.7673 276.835 92.9434 276.659C93.1196 276.483 93.3583 276.384 93.6073 276.384ZM95.4333 278.978H96.9863V279.694H97.0078C97.2243 279.284 97.7521 278.852 98.5403 278.852C100.181 278.848 100.485 279.928 100.485 281.328V284.191H98.865V281.655C98.865 281.051 98.8543 280.274 98.0232 280.274C97.1921 280.274 97.0507 280.932 97.0507 281.616V284.191H95.4333V278.978Z" fill="white"/>
<path d="M106.098 280.35H173.768" stroke="#C4C4C4" stroke-width="3" stroke-linecap="round"/>
<path d="M101.367 290.926H162.489" stroke="#C4C4C4" stroke-width="2" stroke-linecap="round"/>
<path d="M51.8867 347.677H113.008" stroke="#C4C4C4" stroke-width="2" stroke-linecap="round"/>
<path d="M51.8867 397.165H207.601" stroke="#C4C4C4" stroke-width="2" stroke-linecap="round"/>
<path d="M51.8867 405.884H207.601" stroke="#C4C4C4" stroke-width="2" stroke-linecap="round"/>
<path d="M51.8867 443.727H207.601" stroke="#C4C4C4" stroke-width="2" stroke-linecap="round"/>
<path d="M51.8867 452.467H207.601" stroke="#C4C4C4" stroke-width="2" stroke-linecap="round"/>
<path d="M51.8867 334.567H99.9106" stroke="#C4C4C4" stroke-width="3" stroke-linecap="round"/>
<path d="M51.8867 384.07H99.9106" stroke="#C4C4C4" stroke-width="3" stroke-linecap="round"/>
<path d="M51.8867 430.639H99.9106" stroke="#C4C4C4" stroke-width="3" stroke-linecap="round"/>
</g>
<g filter="url(#filter1_d_610_1467)">
<rect x="148.422" y="80.7031" width="201.283" height="365.728" rx="8.5" fill="#F4FAFF" stroke="black"/>
<circle cx="246.881" cy="179.16" r="46.5686" fill="#07DEAA"/>
<path d="M213.332 230.069H204.028C203.817 230.067 203.613 230.149 203.462 230.297C203.311 230.444 203.225 230.646 203.223 230.857V240.198C203.226 240.409 203.312 240.61 203.463 240.757C203.614 240.905 203.817 240.986 204.028 240.984H213.332C213.543 240.985 213.746 240.904 213.897 240.756C214.048 240.608 214.134 240.407 214.137 240.196V230.854C214.133 230.643 214.047 230.443 213.896 230.296C213.745 230.149 213.542 230.068 213.332 230.069Z" fill="#377AAE"/>
<path d="M204.84 234.162H206.46V239.375H204.84V234.162ZM205.65 231.567C205.836 231.567 206.018 231.622 206.172 231.726C206.327 231.829 206.447 231.976 206.518 232.147C206.589 232.319 206.608 232.508 206.572 232.69C206.535 232.873 206.446 233.04 206.314 233.171C206.183 233.303 206.015 233.392 205.833 233.428C205.651 233.464 205.462 233.446 205.29 233.374C205.119 233.303 204.972 233.183 204.869 233.028C204.766 232.873 204.711 232.692 204.711 232.506C204.711 232.257 204.81 232.018 204.986 231.842C205.163 231.666 205.401 231.567 205.65 231.567ZM207.476 234.162H209.029V234.877H209.051C209.267 234.468 209.795 234.036 210.583 234.036C212.224 234.032 212.528 235.112 212.528 236.512V239.375H210.908V236.839C210.908 236.235 210.897 235.457 210.066 235.457C209.235 235.457 209.094 236.116 209.094 236.799V239.375H207.476V234.162Z" fill="white"/>
<path d="M218.141 235.531L285.811 235.531" stroke="#C4C4C4" stroke-width="3" stroke-linecap="round"/>
<path d="M213.41 246.105H274.531" stroke="#C4C4C4" stroke-width="2" stroke-linecap="round"/>
<path d="M163.93 302.856H225.051" stroke="#C4C4C4" stroke-width="2" stroke-linecap="round"/>
<path d="M163.93 352.345H319.644" stroke="#C4C4C4" stroke-width="2" stroke-linecap="round"/>
<path d="M163.93 361.063H319.644" stroke="#C4C4C4" stroke-width="2" stroke-linecap="round"/>
<path d="M163.93 398.906H319.644" stroke="#C4C4C4" stroke-width="2" stroke-linecap="round"/>
<path d="M163.93 407.646H319.644" stroke="#C4C4C4" stroke-width="2" stroke-linecap="round"/>
<path d="M163.93 289.747H211.954" stroke="#C4C4C4" stroke-width="3" stroke-linecap="round"/>
<path d="M163.93 339.25H211.954" stroke="#C4C4C4" stroke-width="3" stroke-linecap="round"/>
<path d="M163.93 385.818H211.954" stroke="#C4C4C4" stroke-width="3" stroke-linecap="round"/>
</g>
<g filter="url(#filter2_d_610_1467)">
<rect x="260.469" y="35.8828" width="201.283" height="365.728" rx="8.5" fill="#F4FAFF" stroke="black"/>
<circle cx="358.928" cy="134.34" r="46.5686" fill="#377AAE"/>
<path d="M325.379 185.254H316.075C315.864 185.252 315.66 185.333 315.509 185.481C315.358 185.629 315.272 185.83 315.27 186.041V195.383C315.273 195.594 315.359 195.795 315.51 195.942C315.661 196.089 315.864 196.171 316.075 196.168H325.379C325.59 196.17 325.793 196.088 325.944 195.94C326.095 195.793 326.181 195.591 326.184 195.38V186.039C326.18 185.828 326.094 185.628 325.943 185.481C325.792 185.334 325.589 185.252 325.379 185.254Z" fill="#0076B2"/>
<path d="M316.887 189.346H318.507V194.559H316.887V189.346ZM317.697 186.752C317.883 186.752 318.065 186.807 318.219 186.91C318.374 187.014 318.494 187.16 318.565 187.332C318.636 187.504 318.655 187.693 318.618 187.875C318.582 188.057 318.493 188.225 318.361 188.356C318.23 188.487 318.062 188.577 317.88 188.613C317.698 188.649 317.509 188.63 317.337 188.559C317.165 188.488 317.019 188.367 316.916 188.213C316.813 188.058 316.758 187.876 316.758 187.69C316.758 187.441 316.857 187.203 317.033 187.027C317.209 186.851 317.448 186.752 317.697 186.752ZM319.523 189.346H321.076V190.062H321.098C321.314 189.652 321.842 189.22 322.63 189.22C324.271 189.217 324.575 190.296 324.575 191.697V194.559H322.955V192.023C322.955 191.419 322.944 190.642 322.113 190.642C321.282 190.642 321.141 191.3 321.141 191.984V194.559H319.523V189.346Z" fill="white"/>
<path d="M330.188 190.713L397.858 190.713" stroke="#C4C4C4" stroke-width="3" stroke-linecap="round"/>
<path d="M325.457 201.285H386.578" stroke="#C4C4C4" stroke-width="2" stroke-linecap="round"/>
<path d="M275.977 258.036H337.098" stroke="#C4C4C4" stroke-width="2" stroke-linecap="round"/>
<path d="M275.977 307.524H431.69" stroke="#C4C4C4" stroke-width="2" stroke-linecap="round"/>
<path d="M275.977 316.243H431.69" stroke="#C4C4C4" stroke-width="2" stroke-linecap="round"/>
<path d="M275.977 354.086H431.69" stroke="#C4C4C4" stroke-width="2" stroke-linecap="round"/>
<path d="M275.977 362.826H431.69" stroke="#C4C4C4" stroke-width="2" stroke-linecap="round"/>
<path d="M275.977 244.927H324" stroke="#C4C4C4" stroke-width="3" stroke-linecap="round"/>
<path d="M275.977 294.43H324" stroke="#C4C4C4" stroke-width="3" stroke-linecap="round"/>
<path d="M275.977 340.998H324" stroke="#C4C4C4" stroke-width="3" stroke-linecap="round"/>
</g>
<circle cx="267.142" cy="35.386" r="16.8762" fill="white"/>
<path d="M267.14 16.5625C256.787 16.5625 248.316 25.0331 248.316 35.386C248.316 45.7389 256.787 54.2094 267.14 54.2094C277.493 54.2094 285.963 45.7389 285.963 35.386C285.963 25.0331 277.493 16.5625 267.14 16.5625ZM263.375 44.7977L253.963 35.386L256.618 32.7319L263.375 39.4707L277.662 25.1836L280.316 27.8566L263.375 44.7977Z" fill="#F26941"/>
<circle cx="155.095" cy="80.2063" r="16.8762" fill="white"/>
<path d="M155.093 61.3828C144.74 61.3828 136.27 69.8534 136.27 80.2063C136.27 90.5592 144.74 99.0298 155.093 99.0298C165.446 99.0298 173.916 90.5592 173.916 80.2063C173.916 69.8534 165.446 61.3828 155.093 61.3828ZM151.328 89.618L141.917 80.2063L144.571 77.5522L151.328 84.291L165.615 70.004L168.269 72.6769L151.328 89.618Z" fill="#F26941"/>
<circle cx="43.052" cy="125.019" r="16.8762" fill="white"/>
<path d="M43.05 106.195C32.6971 106.195 24.2266 114.666 24.2266 125.019C24.2266 135.372 32.6971 143.842 43.05 143.842C53.4029 143.842 61.8735 135.372 61.8735 125.019C61.8735 114.666 53.4029 106.195 43.05 106.195ZM39.2853 134.431L29.8736 125.019L32.5277 122.365L39.2853 129.103L53.5723 114.816L56.2265 117.489L39.2853 134.431Z" fill="#F26941"/>
<defs>
<filter id="filter0_d_610_1467" x="0.878906" y="90.0234" width="272.281" height="436.728" filterUnits="userSpaceOnUse" color-interpolation-filters="sRGB">
<feFlood flood-opacity="0" result="BackgroundImageFix"/>
<feColorMatrix in="SourceAlpha" type="matrix" values="0 0 0 0 0 0 0 0 0 0 0 0 0 0 0 0 0 0 127 0" result="hardAlpha"/>
<feOffset/>
<feGaussianBlur stdDeviation="17.5"/>
<feComposite in2="hardAlpha" operator="out"/>
<feColorMatrix type="matrix" values="0 0 0 0 0 0 0 0 0 0 0 0 0 0 0 0 0 0 0.15 0"/>
<feBlend mode="normal" in2="BackgroundImageFix" result="effect1_dropShadow_610_1467"/>
<feBlend mode="normal" in="SourceGraphic" in2="effect1_dropShadow_610_1467" result="shape"/>
</filter>
<filter id="filter1_d_610_1467" x="112.922" y="45.2031" width="272.281" height="436.728" filterUnits="userSpaceOnUse" color-interpolation-filters="sRGB">
<feFlood flood-opacity="0" result="BackgroundImageFix"/>
<feColorMatrix in="SourceAlpha" type="matrix" values="0 0 0 0 0 0 0 0 0 0 0 0 0 0 0 0 0 0 127 0" result="hardAlpha"/>
<feOffset/>
<feGaussianBlur stdDeviation="17.5"/>
<feComposite in2="hardAlpha" operator="out"/>
<feColorMatrix type="matrix" values="0 0 0 0 0 0 0 0 0 0 0 0 0 0 0 0 0 0 0.1 0"/>
<feBlend mode="normal" in2="BackgroundImageFix" result="effect1_dropShadow_610_1467"/>
<feBlend mode="normal" in="SourceGraphic" in2="effect1_dropShadow_610_1467" result="shape"/>
</filter>
<filter id="filter2_d_610_1467" x="224.969" y="0.382812" width="272.281" height="436.728" filterUnits="userSpaceOnUse" color-interpolation-filters="sRGB">
<feFlood flood-opacity="0" result="BackgroundImageFix"/>
<feColorMatrix in="SourceAlpha" type="matrix" values="0 0 0 0 0 0 0 0 0 0 0 0 0 0 0 0 0 0 127 0" result="hardAlpha"/>
<feOffset/>
<feGaussianBlur stdDeviation="17.5"/>
<feComposite in2="hardAlpha" operator="out"/>
<feColorMatrix type="matrix" values="0 0 0 0 0 0 0 0 0 0 0 0 0 0 0 0 0 0 0.1 0"/>
<feBlend mode="normal" in2="BackgroundImageFix" result="effect1_dropShadow_610_1467"/>
<feBlend mode="normal" in="SourceGraphic" in2="effect1_dropShadow_610_1467" result="shape"/>
</filter>
</defs>
</svg>
