<svg width="421" height="493" viewBox="0 0 421 493" fill="none" xmlns="http://www.w3.org/2000/svg">
<circle cx="190.037" cy="227.765" r="182.791" transform="rotate(1.98159 190.037 227.765)" stroke="black" stroke-width="2" stroke-dasharray="10 10"/>
<path d="M35.6797 461.5V70.1364H59.0586V51.9008H82.9051V33.6653H103.946V15.4297H319.5L317.162 396.506L298.459 407.728V423.626H278.353V445.134H255.442V461.5H35.6797Z" fill="white"/>
<g opacity="0.5" filter="url(#filter0_d_610_643)">
<rect x="40.3867" y="75.3125" width="211.541" height="381.603" rx="8.5" fill="#F4FAFF" stroke="black"/>
<ellipse cx="143.864" cy="178.053" rx="48.9302" ry="48.5845" fill="#8C6EFE"/>
<path d="M108.614 231.171H98.8382C98.6164 231.169 98.4027 231.254 98.2441 231.408C98.0855 231.562 97.9949 231.772 97.9922 231.992V241.738C97.9954 241.958 98.0862 242.168 98.2448 242.322C98.4033 242.475 98.6167 242.56 98.8382 242.558H108.614C108.836 242.56 109.049 242.474 109.208 242.32C109.366 242.166 109.457 241.956 109.46 241.736V231.989C109.456 231.77 109.365 231.561 109.207 231.407C109.048 231.254 108.835 231.169 108.614 231.171Z" fill="#0076B2"/>
<path d="M99.69 235.441H101.392V240.88H99.69V235.441ZM100.542 232.734C100.737 232.734 100.928 232.792 101.09 232.9C101.252 233.007 101.379 233.16 101.454 233.34C101.528 233.519 101.548 233.716 101.51 233.906C101.471 234.096 101.377 234.271 101.239 234.408C101.101 234.545 100.925 234.638 100.734 234.676C100.542 234.713 100.344 234.694 100.163 234.62C99.983 234.545 99.8289 234.419 99.7206 234.258C99.6122 234.097 99.5545 233.907 99.5547 233.713C99.5549 233.454 99.659 233.205 99.8441 233.021C100.029 232.837 100.28 232.734 100.542 232.734ZM102.46 235.441H104.092V236.188H104.115C104.342 235.76 104.897 235.309 105.725 235.309C107.449 235.306 107.768 236.432 107.768 237.893V240.88H106.066V238.234C106.066 237.604 106.055 236.793 105.181 236.793C104.308 236.793 104.16 237.48 104.16 238.193V240.88H102.46V235.441Z" fill="white"/>
<path d="M113.664 236.867L184.766 236.867" stroke="#C4C4C4" stroke-width="3" stroke-linecap="round"/>
<path d="M108.695 247.897H172.916" stroke="#C4C4C4" stroke-width="2" stroke-linecap="round"/>
<path d="M56.707 307.104H120.928" stroke="#C4C4C4" stroke-width="2" stroke-linecap="round"/>
<path d="M56.707 358.735H220.318" stroke="#C4C4C4" stroke-width="2" stroke-linecap="round"/>
<path d="M56.707 367.831H220.318" stroke="#C4C4C4" stroke-width="2" stroke-linecap="round"/>
<path d="M56.707 407.312H220.318" stroke="#C4C4C4" stroke-width="2" stroke-linecap="round"/>
<path d="M56.707 416.43H220.318" stroke="#C4C4C4" stroke-width="2" stroke-linecap="round"/>
<path d="M56.707 293.428H107.166" stroke="#C4C4C4" stroke-width="3" stroke-linecap="round"/>
<path d="M56.707 345.073H107.166" stroke="#C4C4C4" stroke-width="3" stroke-linecap="round"/>
<path d="M56.707 393.657H107.166" stroke="#C4C4C4" stroke-width="3" stroke-linecap="round"/>
</g>
<g opacity="0.5">
<rect x="62.832" y="56.6094" width="211.541" height="381.603" rx="8.5" fill="#F4FAFF" stroke="black"/>
<ellipse cx="166.309" cy="159.35" rx="48.9302" ry="48.5845" fill="#07DEAA"/>
<path d="M131.059 212.468H121.283C121.062 212.466 120.848 212.551 120.689 212.705C120.531 212.859 120.44 213.069 120.438 213.289V223.035C120.441 223.255 120.532 223.465 120.69 223.618C120.849 223.772 121.062 223.857 121.283 223.855H131.059C131.281 223.856 131.495 223.771 131.653 223.617C131.812 223.463 131.902 223.253 131.905 223.032V213.286C131.901 213.067 131.81 212.858 131.652 212.704C131.494 212.551 131.281 212.466 131.059 212.468Z" fill="#377AAE"/>
<path d="M122.135 216.738H123.838V222.177H122.135V216.738ZM122.987 214.031C123.182 214.031 123.373 214.089 123.535 214.196C123.698 214.304 123.824 214.457 123.899 214.636C123.974 214.816 123.993 215.013 123.955 215.203C123.917 215.393 123.823 215.568 123.685 215.705C123.546 215.842 123.37 215.935 123.179 215.973C122.987 216.01 122.789 215.991 122.609 215.916C122.428 215.842 122.274 215.716 122.166 215.555C122.058 215.394 122 215.204 122 215.01C122 214.751 122.104 214.502 122.289 214.318C122.474 214.134 122.725 214.031 122.987 214.031ZM124.906 216.738H126.537V217.485H126.56C126.787 217.057 127.342 216.606 128.17 216.606C129.894 216.603 130.214 217.729 130.214 219.19V222.177H128.511V219.531C128.511 218.901 128.5 218.089 127.627 218.089C126.754 218.089 126.605 218.776 126.605 219.489V222.177H124.906V216.738Z" fill="white"/>
<path d="M136.109 218.164L207.211 218.164" stroke="#C4C4C4" stroke-width="3" stroke-linecap="round"/>
<path d="M131.141 229.193H195.362" stroke="#C4C4C4" stroke-width="2" stroke-linecap="round"/>
<path d="M79.1523 288.401H143.373" stroke="#C4C4C4" stroke-width="2" stroke-linecap="round"/>
<path d="M79.1523 340.032H242.763" stroke="#C4C4C4" stroke-width="2" stroke-linecap="round"/>
<path d="M79.1523 349.128H242.763" stroke="#C4C4C4" stroke-width="2" stroke-linecap="round"/>
<path d="M79.1523 388.609H242.763" stroke="#C4C4C4" stroke-width="2" stroke-linecap="round"/>
<path d="M79.1523 397.727H242.763" stroke="#C4C4C4" stroke-width="2" stroke-linecap="round"/>
<path d="M79.1523 274.725H129.612" stroke="#C4C4C4" stroke-width="3" stroke-linecap="round"/>
<path d="M79.1523 326.37H129.612" stroke="#C4C4C4" stroke-width="3" stroke-linecap="round"/>
<path d="M79.1523 374.954H129.612" stroke="#C4C4C4" stroke-width="3" stroke-linecap="round"/>
</g>
<g opacity="0.5" filter="url(#filter1_d_610_643)">
<rect x="85.2773" y="37.9062" width="210.039" height="381.603" rx="8.5" fill="#F4FAFF" stroke="black"/>
<circle cx="188.018" cy="140.647" r="48.5845" fill="#8C6EFE"/>
<path d="M153.02 193.766H143.313C143.092 193.763 142.88 193.849 142.723 194.003C142.565 194.157 142.475 194.367 142.473 194.587V204.333C142.476 204.553 142.566 204.763 142.723 204.916C142.881 205.07 143.093 205.155 143.313 205.153H153.02C153.24 205.154 153.452 205.069 153.609 204.915C153.767 204.761 153.857 204.551 153.86 204.33V194.584C153.856 194.365 153.765 194.155 153.608 194.002C153.451 193.849 153.239 193.764 153.02 193.766Z" fill="#0076B2"/>
<path d="M144.158 198.036H145.848V203.474H144.158V198.036ZM145.003 195.329C145.197 195.329 145.387 195.387 145.548 195.494C145.709 195.602 145.835 195.755 145.909 195.934C145.983 196.113 146.002 196.311 145.965 196.501C145.927 196.691 145.833 196.865 145.696 197.002C145.559 197.139 145.384 197.233 145.194 197.27C145.004 197.308 144.807 197.289 144.628 197.214C144.449 197.14 144.296 197.014 144.188 196.853C144.081 196.692 144.023 196.502 144.023 196.308C144.024 196.048 144.127 195.799 144.311 195.616C144.495 195.432 144.744 195.329 145.003 195.329ZM146.908 198.036H148.529V198.783H148.551C148.777 198.355 149.328 197.904 150.15 197.904C151.862 197.9 152.179 199.027 152.179 200.488V203.474H150.489V200.828C150.489 200.198 150.478 199.387 149.61 199.387C148.743 199.387 148.596 200.074 148.596 200.787V203.474H146.908V198.036Z" fill="white"/>
<path d="M158.035 199.462L228.635 199.462" stroke="#C4C4C4" stroke-width="3" stroke-linecap="round"/>
<path d="M153.098 210.49H216.865" stroke="#C4C4C4" stroke-width="2" stroke-linecap="round"/>
<path d="M101.477 269.698H165.244" stroke="#C4C4C4" stroke-width="2" stroke-linecap="round"/>
<path d="M101.477 321.329H263.931" stroke="#C4C4C4" stroke-width="2" stroke-linecap="round"/>
<path d="M101.477 330.425H263.931" stroke="#C4C4C4" stroke-width="2" stroke-linecap="round"/>
<path d="M101.477 369.906H263.931" stroke="#C4C4C4" stroke-width="2" stroke-linecap="round"/>
<path d="M101.477 379.023H263.931" stroke="#C4C4C4" stroke-width="2" stroke-linecap="round"/>
<path d="M101.477 256.021H151.579" stroke="#C4C4C4" stroke-width="3" stroke-linecap="round"/>
<path d="M101.477 307.667H151.579" stroke="#C4C4C4" stroke-width="3" stroke-linecap="round"/>
<path d="M101.477 356.251H151.579" stroke="#C4C4C4" stroke-width="3" stroke-linecap="round"/>
</g>
<g opacity="0.5">
<rect x="105.848" y="19.2031" width="210.039" height="381.603" rx="8.5" fill="#F4FAFF" stroke="black"/>
<circle cx="208.588" cy="121.944" r="48.5845" fill="#07DEAA"/>
<path d="M173.59 175.063H163.883C163.663 175.06 163.451 175.146 163.293 175.3C163.136 175.453 163.046 175.664 163.043 175.884V185.63C163.046 185.85 163.136 186.06 163.294 186.213C163.451 186.367 163.663 186.452 163.883 186.449H173.59C173.81 186.451 174.022 186.366 174.18 186.212C174.337 186.058 174.427 185.847 174.43 185.627V175.881C174.426 175.662 174.336 175.452 174.178 175.299C174.021 175.146 173.809 175.061 173.59 175.063Z" fill="#377AAE"/>
<path d="M164.728 179.332H166.418V184.77H164.728V179.332ZM165.574 176.625C165.768 176.625 165.957 176.683 166.118 176.79C166.28 176.898 166.405 177.051 166.479 177.23C166.553 177.409 166.573 177.606 166.535 177.797C166.497 177.987 166.404 178.161 166.266 178.298C166.129 178.435 165.955 178.529 165.764 178.566C165.574 178.604 165.377 178.584 165.198 178.51C165.019 178.436 164.866 178.31 164.758 178.149C164.651 177.988 164.594 177.798 164.594 177.604C164.594 177.344 164.697 177.095 164.881 176.912C165.065 176.728 165.314 176.625 165.574 176.625ZM167.479 179.332H169.099V180.078H169.121C169.347 179.651 169.898 179.2 170.72 179.2C172.432 179.196 172.749 180.323 172.749 181.784V184.77H171.059V182.124C171.059 181.494 171.048 180.683 170.181 180.683C169.314 180.683 169.166 181.37 169.166 182.083V184.77H167.479V179.332Z" fill="white"/>
<path d="M178.605 180.758L249.205 180.758" stroke="#C4C4C4" stroke-width="3" stroke-linecap="round"/>
<path d="M173.668 191.787H237.435" stroke="#C4C4C4" stroke-width="2" stroke-linecap="round"/>
<path d="M122.047 250.995H185.814" stroke="#C4C4C4" stroke-width="2" stroke-linecap="round"/>
<path d="M122.047 302.626H284.501" stroke="#C4C4C4" stroke-width="2" stroke-linecap="round"/>
<path d="M122.047 311.722H284.501" stroke="#C4C4C4" stroke-width="2" stroke-linecap="round"/>
<path d="M122.047 351.202H284.501" stroke="#C4C4C4" stroke-width="2" stroke-linecap="round"/>
<path d="M122.047 360.32H284.501" stroke="#C4C4C4" stroke-width="2" stroke-linecap="round"/>
<path d="M122.047 237.318H172.15" stroke="#C4C4C4" stroke-width="3" stroke-linecap="round"/>
<path d="M122.047 288.964H172.15" stroke="#C4C4C4" stroke-width="3" stroke-linecap="round"/>
<path d="M122.047 337.548H172.15" stroke="#C4C4C4" stroke-width="3" stroke-linecap="round"/>
</g>
<rect x="126.422" y="0.5" width="210.039" height="381.603" rx="8.5" fill="#F4FAFF" stroke="black"/>
<circle cx="229.163" cy="103.241" r="48.5845" fill="#377AAE"/>
<path d="M194.164 156.359H184.457C184.237 156.357 184.025 156.442 183.867 156.596C183.71 156.75 183.62 156.961 183.617 157.181V166.927C183.62 167.147 183.711 167.356 183.868 167.51C184.025 167.664 184.237 167.749 184.457 167.746H194.164C194.384 167.748 194.596 167.663 194.754 167.508C194.911 167.354 195.001 167.144 195.004 166.924V157.178C195 156.958 194.91 156.749 194.752 156.596C194.595 156.443 194.384 156.358 194.164 156.359Z" fill="#0076B2"/>
<path d="M185.302 160.629H186.993V166.067H185.302V160.629ZM186.148 157.922C186.342 157.922 186.531 157.979 186.693 158.087C186.854 158.195 186.979 158.348 187.053 158.527C187.128 158.706 187.147 158.903 187.109 159.093C187.071 159.284 186.978 159.458 186.841 159.595C186.703 159.732 186.529 159.825 186.339 159.863C186.148 159.901 185.951 159.881 185.772 159.807C185.593 159.733 185.44 159.607 185.333 159.446C185.225 159.284 185.168 159.095 185.168 158.901C185.168 158.641 185.272 158.392 185.455 158.209C185.639 158.025 185.888 157.922 186.148 157.922ZM188.053 160.629H189.673V161.375H189.696C189.922 160.948 190.472 160.497 191.294 160.497C193.006 160.493 193.324 161.62 193.324 163.081V166.067H191.633V163.421C191.633 162.791 191.622 161.98 190.755 161.98C189.888 161.98 189.74 162.667 189.74 163.38V166.067H188.053V160.629Z" fill="white"/>
<path d="M199.18 162.057L269.779 162.057" stroke="#C4C4C4" stroke-width="3" stroke-linecap="round"/>
<path d="M194.242 173.084H258.009" stroke="#C4C4C4" stroke-width="2" stroke-linecap="round"/>
<path d="M142.621 232.292H206.388" stroke="#C4C4C4" stroke-width="2" stroke-linecap="round"/>
<path d="M142.621 283.923H305.075" stroke="#C4C4C4" stroke-width="2" stroke-linecap="round"/>
<path d="M142.621 293.019H305.075" stroke="#C4C4C4" stroke-width="2" stroke-linecap="round"/>
<path d="M142.621 332.499H305.075" stroke="#C4C4C4" stroke-width="2" stroke-linecap="round"/>
<path d="M142.621 341.617H305.075" stroke="#C4C4C4" stroke-width="2" stroke-linecap="round"/>
<path d="M142.621 218.615H192.724" stroke="#C4C4C4" stroke-width="3" stroke-linecap="round"/>
<path d="M142.621 270.261H192.724" stroke="#C4C4C4" stroke-width="3" stroke-linecap="round"/>
<path d="M142.621 318.845H192.724" stroke="#C4C4C4" stroke-width="3" stroke-linecap="round"/>
<path d="M234.432 144.044C242.221 139.494 250.762 137.232 260.059 137.232C269.578 137.232 278.121 139.438 285.699 143.877C286.533 144.364 287.274 144.964 288.068 145.498L315.139 127.742C311.064 124.061 306.688 120.699 301.766 117.914C289.316 110.88 275.426 107.362 260.059 107.362C244.705 107.362 230.803 110.936 218.367 118.082C209.783 122.989 202.56 129.347 196.505 136.942L222.307 154.268C225.772 150.22 229.763 146.755 234.432 144.044ZM330.967 147.618C330.827 147.365 330.65 147.152 330.508 146.902L304.469 164.541C308.346 172.391 310.365 181.296 310.365 191.417C310.365 207.861 305.604 220.953 296.084 230.667C286.565 240.411 274.561 245.297 260.059 245.297C250.539 245.297 241.942 243.119 234.264 238.79C226.588 234.465 220.53 228.184 216.091 219.977C211.652 211.74 209.448 202.221 209.448 191.417C209.448 186.331 209.985 181.538 211.001 177.003L183.976 158.889C180.224 168.839 178.293 179.658 178.293 191.417C178.293 207.861 181.852 222.404 188.998 235.049C196.131 247.724 205.874 257.552 218.199 264.587C230.538 271.621 244.481 275.138 260.059 275.138C275.636 275.138 289.595 271.621 301.934 264.587C314.259 257.552 323.931 247.724 330.967 235.049C338.002 222.404 341.518 207.861 341.518 191.417C341.518 174.974 338.002 160.374 330.967 147.618Z" fill="#F26941"/>
<path d="M391.216 144.572C391.161 144.572 391.106 144.572 391.049 144.566C389.684 144.476 388.651 143.295 388.742 141.933C388.838 140.474 388.903 139.004 388.903 137.526C388.903 101.031 359.212 71.3433 322.716 71.3433C321.348 71.3433 320.094 70.2396 320.094 68.8641C320.094 67.4962 321.059 66.394 322.425 66.394H322.439C361.954 66.394 393.859 98.3006 393.859 137.526C393.859 139.12 393.788 140.695 393.685 142.256C393.597 143.565 392.51 144.572 391.216 144.572Z" fill="#F26941"/>
<path d="M358.573 144.572C358.47 144.572 358.363 144.566 358.26 144.553C356.901 144.379 355.94 143.139 356.112 141.785C356.288 140.385 356.415 138.972 356.415 137.526C356.415 118.95 341.297 103.831 322.716 103.831C321.348 103.831 320.094 102.728 320.094 101.36C320.094 99.9917 321.059 98.888 322.427 98.888C344.058 98.9016 361.371 116.232 361.371 137.526C361.371 139.177 361.232 140.798 361.028 142.404C360.869 143.656 359.802 144.572 358.573 144.572Z" fill="#F26941"/>
<path d="M374.928 144.572C374.854 144.572 374.783 144.572 374.707 144.566C373.344 144.444 372.337 143.244 372.456 141.876C372.582 140.443 372.66 138.998 372.66 137.526C372.66 109.987 350.257 87.5835 322.716 87.5835C321.348 87.5835 320.094 86.4798 320.094 85.1119C320.094 83.7379 321.059 82.6342 322.427 82.6342H322.44C352.995 82.6342 377.615 107.257 377.615 137.526C377.615 139.14 377.531 140.727 377.392 142.313C377.28 143.598 376.199 144.572 374.928 144.572Z" fill="#F26941"/>
<path d="M342.102 144.572C341.914 144.572 341.724 144.553 341.534 144.509C340.202 144.192 339.372 142.863 339.684 141.527C340.004 140.171 340.166 138.823 340.166 137.526C340.166 127.899 332.339 120.072 322.718 120.072C321.379 120.072 320.137 119.021 320.095 117.684C320.053 116.35 320.932 115.226 322.266 115.142H322.312C335.097 115.142 345.121 125.182 345.121 137.526C345.121 139.203 344.915 140.933 344.511 142.662C344.244 143.805 343.225 144.572 342.102 144.572Z" fill="#F26941"/>
<path d="M321.005 258.872L316.756 254.617C315.122 252.981 315.122 250.318 316.756 248.682L304.07 261.386L303.862 261.594C302.228 263.231 302.228 265.894 303.862 267.53L309.032 272.707C310.71 269.836 315.702 264.242 321.005 258.872Z" fill="#747474"/>
<path d="M316.741 248.667C315.107 250.304 315.107 252.966 316.741 254.603L320.99 258.858C326.13 253.666 331.537 248.697 334.582 246.629L329.635 241.675C328.135 240.173 325.788 240.069 324.154 241.303C324.005 241.422 323.842 241.527 323.708 241.675L316.741 248.667Z" fill="#747474"/>
<path d="M414.191 323.942L336.931 245.722C336.648 245.439 335.802 245.811 334.598 246.644C331.553 248.712 326.146 253.666 321.006 258.872C315.703 264.243 310.726 269.836 309.018 272.707C308.468 273.645 308.246 274.284 308.498 274.522L385.759 352.742C393.617 360.701 406.348 360.701 414.206 352.742C422.05 344.784 422.05 331.886 414.191 323.942Z" fill="#363636"/>
<defs>
<filter id="filter0_d_610_643" x="4.88672" y="39.8125" width="282.539" height="452.603" filterUnits="userSpaceOnUse" color-interpolation-filters="sRGB">
<feFlood flood-opacity="0" result="BackgroundImageFix"/>
<feColorMatrix in="SourceAlpha" type="matrix" values="0 0 0 0 0 0 0 0 0 0 0 0 0 0 0 0 0 0 127 0" result="hardAlpha"/>
<feOffset/>
<feGaussianBlur stdDeviation="17.5"/>
<feComposite in2="hardAlpha" operator="out"/>
<feColorMatrix type="matrix" values="0 0 0 0 0 0 0 0 0 0 0 0 0 0 0 0 0 0 0.15 0"/>
<feBlend mode="normal" in2="BackgroundImageFix" result="effect1_dropShadow_610_643"/>
<feBlend mode="normal" in="SourceGraphic" in2="effect1_dropShadow_610_643" result="shape"/>
</filter>
<filter id="filter1_d_610_643" x="49.7773" y="2.40625" width="281.039" height="452.603" filterUnits="userSpaceOnUse" color-interpolation-filters="sRGB">
<feFlood flood-opacity="0" result="BackgroundImageFix"/>
<feColorMatrix in="SourceAlpha" type="matrix" values="0 0 0 0 0 0 0 0 0 0 0 0 0 0 0 0 0 0 127 0" result="hardAlpha"/>
<feOffset/>
<feGaussianBlur stdDeviation="17.5"/>
<feComposite in2="hardAlpha" operator="out"/>
<feColorMatrix type="matrix" values="0 0 0 0 0 0 0 0 0 0 0 0 0 0 0 0 0 0 0.15 0"/>
<feBlend mode="normal" in2="BackgroundImageFix" result="effect1_dropShadow_610_643"/>
<feBlend mode="normal" in="SourceGraphic" in2="effect1_dropShadow_610_643" result="shape"/>
</filter>
</defs>
</svg>
