<svg width="30" height="30" viewBox="0 0 30 30" fill="none" xmlns="http://www.w3.org/2000/svg">
<circle cx="14.9155" cy="3.2777" r="2.43297" fill="#C6E6F7"/>
<circle cx="3.27956" cy="14.9154" r="2.43297" fill="#C799FD"/>
<circle cx="14.9155" cy="26.7631" r="2.43297" fill="#BBF8D3"/>
<circle cx="26.7679" cy="14.9154" r="2.43297" fill="#F3C251"/>
<path fill-rule="evenodd" clip-rule="evenodd" d="M14.3823 0.0375318C13.2254 0.294003 12.3054 1.10473 11.9461 2.18436C11.8769 2.39219 11.8147 2.56223 11.8079 2.56223C11.801 2.56223 11.2553 2.36432 10.5951 2.1224C9.935 1.88048 9.30706 1.68245 9.19968 1.68233C8.91334 1.68198 8.66145 1.95065 8.66145 2.25635C8.66145 2.60107 8.84223 2.7426 9.6455 3.02694C10.3696 3.28324 10.5826 3.38093 10.4217 3.38304C10.2798 3.38498 8.97172 4.03951 8.39007 4.39972C7.32476 5.05941 6.39944 5.851 5.5737 6.80917C5.05876 7.40673 5.02356 7.46417 5.02356 7.70668C5.02356 7.9023 5.05823 8.00041 5.1652 8.10737C5.46034 8.40251 5.83263 8.34853 6.11944 7.9689C6.66694 7.24408 7.99067 6.04545 8.86681 5.48105C9.60613 5.00484 11.3069 4.20796 11.3478 4.31868C11.3569 4.34339 11.2052 4.80475 11.0104 5.34387C10.8157 5.88304 10.6564 6.4171 10.6564 6.5307C10.6564 6.82067 10.9198 7.08026 11.2138 7.08026C11.5447 7.08026 11.7065 6.8692 12.0014 6.05343C12.1414 5.66617 12.2782 5.29024 12.3053 5.21801C12.3524 5.09256 12.3672 5.1003 12.635 5.38864C12.9929 5.77408 13.4909 6.09773 13.9898 6.26901C14.5442 6.45941 15.4506 6.46011 16.0023 6.27059C16.9729 5.93719 17.7276 5.18362 18.0598 4.2163C18.2509 3.6597 18.2509 2.75562 18.0598 2.19903C17.7287 1.23493 16.9872 0.490977 16.0206 0.152947C15.6291 0.0161151 14.7564 -0.045377 14.3823 0.0375318ZM15.4995 1.24461C17.0217 1.63891 17.5363 3.52334 16.4252 4.63442C15.624 5.43552 14.3728 5.43552 13.5717 4.63442C12.7629 3.82563 12.7616 2.59092 13.5687 1.7839C13.8601 1.49251 14.1086 1.35034 14.529 1.23463C14.8875 1.13594 15.088 1.13799 15.4995 1.24461ZM20.0066 3.84875C19.7844 3.98423 19.6622 4.29398 19.745 4.51173C19.8278 4.72959 20.0881 4.90926 20.321 4.90926C20.9254 4.90926 21.0733 3.9982 20.5013 3.79882C20.2586 3.71421 20.221 3.71796 20.0066 3.84875ZM21.8925 5.16825C21.5567 5.50405 21.6481 5.82389 22.2117 6.28497C23.0736 6.99013 24.1233 8.20812 24.6921 9.16324C25.084 9.82129 25.7873 11.3408 25.7237 11.3922C25.7144 11.3998 25.2579 11.2396 24.7092 11.0362C24.1606 10.8329 23.6107 10.6649 23.4872 10.6629C23.1819 10.6582 22.9196 10.9117 22.9196 11.2114C22.9196 11.554 23.1373 11.7237 23.9465 12.0118C24.3337 12.1497 24.7097 12.284 24.7819 12.3101C24.907 12.3554 24.8988 12.371 24.6113 12.6381C24.2258 12.9959 23.9022 13.494 23.7309 13.9928C23.5397 14.5494 23.5397 15.4535 23.7309 16.0101C24.0609 16.971 24.7877 17.7023 25.7701 18.0618C26.2683 18.2441 27.3161 18.2441 27.8144 18.0618C28.7968 17.7023 29.5236 16.971 29.8536 16.0101C30.0447 15.4535 30.0447 14.5494 29.8536 13.9928C29.5221 13.0274 28.757 12.2624 27.8068 11.9463C27.5855 11.8727 27.4402 11.793 27.4551 11.7535C27.9318 10.4864 28.3178 9.34338 28.3178 9.19851C28.3178 8.87696 27.932 8.60131 27.599 8.68492C27.3501 8.74741 27.2598 8.87074 27.0555 9.42728C26.9429 9.73386 26.808 10.0996 26.7557 10.2401L26.6606 10.4954L26.473 10.064C25.8155 8.55219 24.9376 7.2743 23.7477 6.09732C22.9611 5.31934 22.556 5.02661 22.2657 5.02661C22.0992 5.02661 21.9944 5.06639 21.8925 5.16825ZM3.93776 9.27555C3.54986 9.66345 3.80568 10.2722 4.35659 10.2722C4.64128 10.2722 4.9062 9.98957 4.9062 9.68587C4.9062 9.2113 4.2711 8.94221 3.93776 9.27555ZM2.58852 11.8313C1.42721 12.0888 0.522486 12.8884 0.143265 13.9928C-0.0471373 14.5472 -0.0478414 15.4537 0.141681 16.0054C0.474431 16.974 1.23804 17.7399 2.18524 18.0551C2.49111 18.1569 2.55947 18.2013 2.52908 18.2787C2.17174 19.1873 1.67904 20.648 1.67904 20.7987C1.67904 21.0739 1.94784 21.3384 2.22743 21.3384C2.58505 21.3384 2.73567 21.1469 3.03023 20.3177C3.17451 19.9113 3.30923 19.5786 3.32953 19.5785C3.34977 19.5783 3.40029 19.664 3.44178 19.7689C3.61921 20.2178 4.18033 21.2883 4.47975 21.7492C5.17547 22.8199 6.13775 23.9063 7.04464 24.6446C7.38349 24.9205 7.49034 24.9763 7.67922 24.9763C7.9838 24.9763 8.12633 24.8901 8.22924 24.6439C8.34542 24.3659 8.25371 24.0979 7.96902 23.8833C7.53247 23.5542 6.40983 22.4098 6.01447 21.891C5.4665 21.1717 4.90069 20.2073 4.58889 19.4608C4.1815 18.4856 4.10469 18.5396 5.28724 18.9693C5.85358 19.1751 6.41088 19.3435 6.52559 19.3435C6.81768 19.3435 7.0772 19.0812 7.0772 18.7861C7.0772 18.4552 6.86615 18.2934 6.05038 17.9984C5.66312 17.8584 5.28719 17.7217 5.21496 17.6946C5.08951 17.6475 5.09725 17.6327 5.38558 17.3649C5.77102 17.007 6.09468 16.509 6.26595 16.0101C6.45712 15.4535 6.45712 14.5494 6.26595 13.9928C5.93491 13.0287 5.19342 12.2848 4.22674 11.9468C3.83531 11.8099 2.96263 11.7484 2.58852 11.8313ZM3.7057 13.0378C5.22775 13.4292 5.74298 15.3166 4.63137 16.4282C3.45961 17.5999 1.53136 16.9764 1.19831 15.318C1.07844 14.7211 1.29988 14.0527 1.77492 13.5777C2.0663 13.2863 2.31479 13.1442 2.7352 13.0284C3.09318 12.9299 3.29374 12.9318 3.7057 13.0378ZM27.1907 13.0088C27.5964 13.1023 27.9305 13.2863 28.219 13.5747C29.0213 14.377 29.0202 15.627 28.2163 16.4308C27.0455 17.6016 25.1191 16.9767 24.7859 15.318C24.5932 14.3581 25.2761 13.3066 26.2642 13.042C26.6501 12.9386 26.8548 12.9313 27.1907 13.0088ZM25.518 19.741C25.3177 19.7731 25.0906 20.0811 25.0906 20.3207C25.0906 20.6152 25.3541 20.869 25.6598 20.869C26.0971 20.869 26.3525 20.4898 26.185 20.0891C26.1383 19.9773 26.0701 19.8674 26.0335 19.8447C25.917 19.7727 25.6525 19.7195 25.518 19.741ZM24.1812 21.7744C24.0843 21.818 23.8864 22.0049 23.7414 22.1898C23.3397 22.7018 22.1833 23.7876 21.597 24.2032C20.7588 24.7973 19.4121 25.4991 18.7096 25.7078C18.5854 25.7447 18.5813 25.7371 18.6413 25.5818C19.0222 24.5945 19.3404 23.6327 19.3404 23.4685C19.3404 23.1922 19.0744 22.9226 18.8022 22.9229C18.5814 22.9232 18.2256 23.1154 18.2256 23.2344C18.2256 23.2777 18.106 23.6412 17.9598 24.042C17.8137 24.443 17.6825 24.8038 17.6685 24.8439C17.6533 24.887 17.528 24.7933 17.3621 24.6146C17.004 24.2289 16.506 23.9053 16.0071 23.7339C15.4505 23.5428 14.5464 23.5428 13.9898 23.7339C13.0289 24.0639 12.2976 24.7907 11.9381 25.7731C11.7558 26.2714 11.7558 27.3192 11.9381 27.8174C12.2976 28.7998 13.0289 29.5266 13.9898 29.8566C14.5464 30.0478 15.4505 30.0478 16.0071 29.8566C16.9724 29.5251 17.7375 28.76 18.0536 27.8098C18.1541 27.5081 18.1984 27.4404 18.2757 27.4708C19.1843 27.8281 20.645 28.3208 20.7957 28.3208C21.0727 28.3208 21.3354 28.0522 21.3354 27.7689C21.3354 27.4272 21.1155 27.2521 20.3379 26.9745C19.9668 26.8419 19.6235 26.7189 19.5751 26.7012C19.52 26.6809 19.6075 26.6191 19.8098 26.5357C21.546 25.8197 23.1806 24.6355 24.4231 23.1938C24.9163 22.6216 24.9733 22.5314 24.9733 22.3244C24.9733 22.0182 24.888 21.874 24.6478 21.7735C24.4094 21.674 24.404 21.674 24.1812 21.7744ZM15.3969 24.8026C15.7976 24.895 16.1397 25.081 16.4231 25.3603C17.2256 26.1515 17.2253 27.4219 16.4225 28.2246C15.2517 29.3954 13.3253 28.7705 12.9921 27.1118C12.7994 26.152 13.4823 25.1004 14.4703 24.8358C14.8562 24.7324 15.061 24.7251 15.3969 24.8026ZM9.30236 25.2652C8.85977 25.7078 9.32472 26.4442 9.8971 26.2071C10.1394 26.1067 10.2457 25.9347 10.2457 25.6432C10.2457 25.145 9.65805 24.9095 9.30236 25.2652Z" fill="black"/>
</svg>
