<svg width="30" height="29" viewBox="0 0 30 29" fill="none" xmlns="http://www.w3.org/2000/svg">
<path d="M0.422852 28.4068V18.1631L4.75402 21.4368C3.73989 23.9714 5.5287 24.8866 6.54987 25.0274V28.4068H0.422852Z" fill="#C799FD"/>
<path d="M12.8877 28.4081V14.8906H11.937L7.9227 20.4877C9.82419 23.6558 7.57057 24.8879 6.5494 25.0287V28.4081H12.8877Z" fill="#F3C251"/>
<path d="M12.9932 28.3026V15.3132L14.789 14.0459L18.2751 16.7916C16.9229 19.1572 18.8385 20.1006 19.9653 20.2766V28.3026H12.9932Z" fill="#C6E6F7"/>
<path d="M19.9648 28.408V20.382C23.1762 20.0441 22.148 17.4251 21.2325 16.1578L26.0919 8.87109L27.4652 9.0823V28.408H19.9648Z" fill="#BBF8D3"/>
<rect x="4.22559" y="2.32324" width="3.80298" height="3.80178" fill="#F3C251"/>
<path fill-rule="evenodd" clip-rule="evenodd" d="M4.21195 1.8464C3.99808 1.96262 3.86735 2.27244 3.86735 2.66321V5.21369C3.86735 6.0978 3.93122 6.32221 4.22895 6.48465C4.40591 6.58118 4.59781 6.59103 6.29909 6.59103C7.95602 6.59103 8.19538 6.57943 8.3567 6.49109C8.71337 6.29585 8.73084 6.18713 8.73084 4.16005C8.73084 2.14843 8.71068 2.01757 8.37428 1.84365C8.13444 1.71964 4.44077 1.7221 4.21195 1.8464ZM4.74629 2.63703V2.81539V5.06537V5.68307H6.29909H7.85189V4.16005V2.63703H6.29909H4.74629Z" fill="black"/>
<path fill-rule="evenodd" clip-rule="evenodd" d="M10.5473 3.45711C10.33 3.23991 10.4481 2.79407 10.7383 2.73585C10.8105 2.72132 12.1675 2.71294 13.7539 2.71716L16.6382 2.72489L16.7667 2.85341C16.9245 3.01128 16.9348 3.29474 16.7885 3.45635C16.6842 3.57163 16.6138 3.57427 13.6731 3.57427C10.7426 3.57427 10.6615 3.57122 10.5473 3.45711ZM10.5422 5.4569C10.3969 5.27765 10.3992 5.01101 10.5473 4.86298C10.6623 4.74799 10.7426 4.74583 14.9127 4.74583C19.0829 4.74583 19.1631 4.74799 19.2782 4.86298C19.4262 5.01101 19.4286 5.27765 19.2833 5.4569L19.1713 5.5952H14.9127H10.6541L10.5422 5.4569Z" fill="black"/>
<path fill-rule="evenodd" clip-rule="evenodd" d="M0.119478 0.129252L0 0.25742L0.00187508 14.4662C0.00339858 26.0302 0.0179304 28.6935 0.0798666 28.7751C0.121763 28.8302 0.228115 28.9027 0.316244 28.9362C0.540198 29.0213 29.4611 29.0213 29.685 28.9362C30.0051 28.8145 30.1003 28.481 29.8818 28.2466C29.7682 28.1247 29.7146 28.1184 28.7978 28.1184H27.8332V18.811V9.50369L28.0318 9.46643C28.6054 9.35883 29.41 8.72783 29.7012 8.15716C30.2133 7.15384 30.0379 5.93847 29.2647 5.13179C28.7091 4.55205 28.092 4.31258 27.2407 4.34627C26.7331 4.36636 26.6342 4.38991 26.2401 4.58462C24.7156 5.33781 24.2822 7.27773 25.3465 8.58402L25.5874 8.87966L23.3966 12.2458C22.1918 14.0972 21.187 15.644 21.1638 15.6831C21.1316 15.7374 21.0602 15.7314 20.8591 15.6575C20.6853 15.5934 20.4184 15.5615 20.0692 15.5628C19.4671 15.565 19.0714 15.688 18.5602 16.0319C18.2959 16.2098 18.2383 16.2279 18.1378 16.1652C18.0738 16.1253 17.4192 15.645 16.6833 15.098C15.6892 14.359 15.3544 14.0798 15.3806 14.0115C15.566 13.5286 15.5988 13.3234 15.5769 12.7855C15.5569 12.295 15.5274 12.1587 15.3679 11.8186C15.1101 11.2693 14.6771 10.8285 14.1291 10.5578C13.6941 10.3429 13.6789 10.34 12.9821 10.34C12.2977 10.34 12.2633 10.3462 11.8674 10.5396C10.5265 11.1947 9.99235 12.8012 10.6724 14.1338C10.7353 14.257 10.8779 14.4587 10.9893 14.582C11.1007 14.7053 11.1919 14.8231 11.1919 14.844C11.1919 14.881 7.70224 20.3156 7.62489 20.399C7.60339 20.4223 7.45684 20.4025 7.29933 20.3551C6.60614 20.1466 5.65911 20.3006 5.07976 20.716L4.79798 20.918L3.55626 19.9379C2.87332 19.3987 1.99198 18.7057 1.59774 18.3978L0.880877 17.838L0.879939 9.04772C0.878943 0.283077 0.878592 0.257069 0.759466 0.129252C0.598853 -0.043084 0.28009 -0.043084 0.119478 0.129252ZM28.9329 6.17729C28.7692 5.85998 28.4304 5.51894 28.1151 5.35392C27.8474 5.21386 27.0642 5.18709 26.7389 5.30694C26.3841 5.43757 25.9898 5.81165 25.8017 6.19598C25.402 7.01267 25.7329 8.01365 26.5525 8.46751C26.8319 8.62215 26.921 8.64113 27.3644 8.64043C27.7898 8.63972 27.906 8.61676 28.1608 8.48309C28.768 8.16443 29.093 7.61473 29.0886 6.9132C29.0864 6.55781 29.0566 6.41717 28.9329 6.17729ZM26.925 9.53286L26.6613 9.45407C26.5163 9.41073 26.3801 9.37488 26.3587 9.37435C26.3372 9.37388 25.314 10.9195 24.0848 12.8091L21.8498 16.2447L22.0486 16.4555C22.7746 17.2254 22.9007 18.5411 22.3401 19.4974C22.0187 20.0456 21.2617 20.6094 20.7073 20.7134L20.5087 20.7506V24.4052V28.0598H23.7316H26.9546L26.9398 18.7963L26.925 9.53286ZM14.2096 14.1359C15.0308 13.3388 14.8103 11.8819 13.7902 11.3645C13.3647 11.1488 12.6783 11.1326 12.2659 11.3286C11.4509 11.7159 11.0787 12.5814 11.3436 13.4732C11.4787 13.9281 11.9842 14.4243 12.4507 14.5598C13.0949 14.747 13.7405 14.5915 14.2096 14.1359ZM17.6671 17.072C17.6993 16.9671 17.5091 16.8061 16.2834 15.9004C15.5019 15.323 14.8473 14.8463 14.829 14.8412C14.8106 14.8361 14.6515 14.9357 14.4755 15.0625C14.2995 15.1894 13.9962 15.3421 13.8016 15.4018L13.4478 15.5104L13.4328 19.6137C13.4225 22.4291 13.4185 25.2444 13.4185 28.0598H16.5241H19.6297V24.406V20.7522L19.453 20.7169C18.8037 20.5871 18.0506 19.9718 17.7183 19.2998C17.5363 18.9316 17.5019 18.7964 17.4773 18.3541C17.4504 17.8681 17.4761 17.694 17.6671 17.072ZM12.5396 28.0598C12.5396 25.234 12.5396 22.4083 12.5396 19.5825V15.4933L12.2364 15.4213C12.0696 15.3817 11.9294 15.3557 11.9247 15.3635C11.92 15.3713 11.127 16.6014 10.1624 18.0972C9.19779 19.5928 8.40047 20.8363 8.39057 20.8603C8.38072 20.8843 8.49112 21.0649 8.63597 21.2615C9.43516 22.3468 9.36514 23.6824 8.45784 24.6622C8.12852 25.0178 7.61212 25.3279 7.23013 25.3996L7.03155 25.4368V26.7483V28.0598H9.78557H12.5396ZM21.7978 18.1601C21.7978 17.4882 21.4349 16.8997 20.8435 16.6125C20.0463 16.2253 19.1354 16.4635 18.6491 17.1862C18.4043 17.55 18.3208 17.8694 18.3556 18.3083C18.4277 19.2172 19.1505 19.8831 20.0657 19.884C20.6076 19.8846 21.0057 19.7114 21.3546 19.3234C21.6567 18.9875 21.7978 18.6172 21.7978 18.1601ZM4.18125 21.5595C4.15365 21.5344 3.43227 20.966 2.57823 20.2964C1.72419 19.6269 0.992503 19.0536 0.952188 19.0225C0.893709 18.9773 0.878943 19.8841 0.878943 23.5129V28.0598H3.48647H6.09401V26.7483V25.4368L5.87427 25.3961C5.3237 25.294 4.6165 24.7405 4.26123 24.1336C3.90046 23.5174 3.83782 22.6528 4.10279 21.9476C4.17357 21.7593 4.20885 21.5847 4.18125 21.5595ZM8.14763 22.1564C7.98069 21.7763 7.54508 21.3696 7.16725 21.2409C6.84023 21.1294 6.26382 21.1235 5.97008 21.2284C5.01642 21.5691 4.55386 22.7104 4.99996 23.6219C5.1751 23.9798 5.4307 24.2361 5.81731 24.4415C6.17264 24.6303 6.95291 24.6303 7.30824 24.4415C7.95531 24.0977 8.28967 23.5629 8.2858 22.8778C8.2841 22.5786 8.24619 22.3808 8.14763 22.1564Z" fill="black"/>
</svg>
