<svg width="31" height="26" viewBox="0 0 31 26" fill="none" xmlns="http://www.w3.org/2000/svg">
<rect x="3.90131" y="16.4854" width="3.9876" height="7.74038" fill="#C799FD"/>
<rect x="10.1064" y="13.4316" width="3.9876" height="10.7944" fill="#F3C251"/>
<rect x="22.75" y="6.81152" width="3.9876" height="17.4139" fill="#F3C251"/>
<rect x="16.2998" y="10.8633" width="3.9876" height="13.3631" fill="#C799FD"/>
<path fill-rule="evenodd" clip-rule="evenodd" d="M22.4322 0.0961991C21.7476 0.191164 21.6693 0.215102 21.5361 0.36985C21.3752 0.556879 21.387 0.763069 21.5701 0.96799C21.6583 1.06676 21.7308 1.07662 22.1396 1.04549C22.3972 1.02584 22.6081 1.02221 22.6081 1.03745C22.6081 1.0829 21.9036 2.06006 21.5758 2.46917C20.5028 3.80847 19.3405 4.93838 17.9792 5.96553C15.2933 7.99201 12.1911 9.28754 8.85679 9.77518C7.88665 9.917 6.26536 10.0101 4.73975 10.0117C3.66056 10.0128 3.57829 10.0208 3.47535 10.1346C3.32453 10.3013 3.33504 10.5938 3.49771 10.7568C3.62133 10.8805 3.69592 10.8907 4.611 10.9094C5.91119 10.936 7.92818 10.8276 8.9769 10.6747C14.4624 9.87498 19.3344 6.97937 22.6518 2.54745C23.0002 2.082 23.3096 1.69211 23.3396 1.68104C23.3694 1.66992 23.3939 1.75171 23.3939 1.86275C23.3939 2.47189 23.7218 2.7904 24.1262 2.57399C24.3417 2.45866 24.3561 2.28039 24.2311 1.27295C24.083 0.0799988 24.046 0.0121148 23.5389 0.000327322C23.3428 -0.00420633 22.8447 0.0388937 22.4322 0.0961991ZM0.803877 1.08423C0.132352 1.75576 0.0607205 1.84806 0.0607205 2.04204C0.0607205 2.30445 0.229916 2.47691 0.487428 2.47691C0.624525 2.47691 0.743126 2.4057 0.957235 2.19486C1.11476 2.03969 1.26311 1.91274 1.28686 1.91274C1.31068 1.91274 1.33014 6.80909 1.33014 12.7935V23.6743H0.873755C0.59146 23.6743 0.352204 23.708 0.246419 23.7627C-0.0312219 23.9063 -0.0781906 24.1627 0.125582 24.4217L0.250832 24.581H14.8234H29.3959L29.0849 24.9098C28.859 25.1486 28.7738 25.2863 28.7738 25.4123C28.7738 25.653 28.9738 25.8504 29.2174 25.8504C29.3898 25.8504 29.5108 25.7532 30.1822 25.0745C30.8004 24.4498 30.95 24.2654 30.95 24.1283C30.95 23.9925 30.812 23.8177 30.27 23.2669C29.896 22.8869 29.5153 22.5368 29.4242 22.4891C29.2219 22.3832 28.9849 22.4327 28.8631 22.6066C28.7005 22.8388 28.7538 23.0154 29.0891 23.355L29.4044 23.6743H28.3033H27.2022V15.2659C27.2022 5.82909 27.2389 6.56276 26.7543 6.32816C26.5146 6.21216 26.3887 6.2046 24.6896 6.20472C22.6691 6.20478 22.5915 6.21844 22.3222 6.62158L22.1849 6.82698V13.946C22.1849 17.8615 22.2019 21.1091 22.2225 21.1629C22.2791 21.3106 22.584 21.446 22.7601 21.4018C23.1105 21.3139 23.0917 21.729 23.0917 14.1099V7.11133H24.6936H26.2955V15.3928V23.6743H24.6936H23.0917V23.1907C23.0917 22.7877 23.0715 22.687 22.9708 22.5862C22.7743 22.3897 22.5174 22.4042 22.3209 22.6229C22.2056 22.7512 22.1849 22.8428 22.1849 23.2243V23.6743H21.5502H20.9155L20.9153 17.1912C20.9151 10.9548 20.9107 10.701 20.8015 10.5218C20.5763 10.1525 20.4615 10.1338 18.428 10.1339C16.3797 10.1339 16.3052 10.1469 16.0355 10.5507L15.8983 10.7561V17.2152V23.6743H15.2636H14.6289V18.4446V13.2149L14.422 12.9891L14.2151 12.7633L12.2005 12.7471C9.42888 12.7248 9.61161 12.5686 9.61161 14.9603C9.61161 16.5057 9.61409 16.5375 9.74762 16.6927C9.92437 16.8982 10.2315 16.9154 10.4167 16.7304C10.544 16.6032 10.5492 16.547 10.5667 15.1192L10.5848 13.6398H12.1535H13.7221V18.657V23.6743H12.1505H10.5788V21.0185C10.5788 18.326 10.5631 18.1157 10.3498 17.9536C10.1455 17.7985 9.79242 17.9032 9.67871 18.1527C9.63277 18.2536 9.61161 19.1465 9.61161 20.9872V23.6743H8.9769H8.34219V20.1048C8.34219 16.167 8.35349 16.2871 7.96336 16.0739C7.78806 15.9781 7.56881 15.9671 5.83357 15.9671C4.06285 15.9671 3.88549 15.9764 3.73715 16.077C3.34919 16.3404 3.35693 16.2879 3.33734 18.7865L3.31957 21.062L3.45824 21.2173C3.66655 21.4506 3.87697 21.477 4.08715 21.2963L4.2619 21.146L4.27992 19.025L4.29793 16.904H5.8667H7.43546V20.2891V23.6743H5.87153H4.30766L4.27943 23.1871C4.24655 22.619 4.1323 22.4429 3.80298 22.4522C3.47021 22.4617 3.35928 22.6367 3.33408 23.192L3.31213 23.6743H2.7745H2.23687V12.7807V1.88705L2.524 2.16802C2.91257 2.54818 3.08503 2.58511 3.3296 2.34054C3.61208 2.05806 3.5506 1.9345 2.70275 1.08157C1.72119 0.0941438 1.79409 0.0940228 0.803877 1.08423ZM20.0088 17.3574V23.6743H18.4069H16.805V17.3574V11.0405H18.4069H20.0088V17.3574Z" fill="#202020"/>
</svg>
