<svg width="31" height="30" viewBox="0 0 31 30" fill="none" xmlns="http://www.w3.org/2000/svg">
<circle cx="9.09539" cy="9.17156" r="7.08367" fill="#F3C251"/>
<circle cx="9.09767" cy="9.17091" r="4.10255" fill="#E5E5E5"/>
<rect x="21.7256" y="14.3184" width="2.70312" height="12.0181" fill="#C799FD"/>
<path d="M6.39941 17.8623H9.10253V23.5831H7.39941C6.84713 23.5831 6.39941 23.1354 6.39941 22.5831V17.8623Z" fill="#C799FD"/>
<path fill-rule="evenodd" clip-rule="evenodd" d="M29.0323 0.483871V0.967742H29.5161H30V1.45161V1.93548H29.5161H29.0323V2.41935V2.90323H28.5484H28.0645V2.41935V1.93548H27.5806H27.0968V1.45161V0.967742H27.5806H28.0645V0.483871V0H28.5484H29.0323V0.483871ZM10.1008 0.0378024C12.4267 0.333629 14.3088 1.26532 15.8473 2.88248C17.2279 4.33361 18.1455 6.32861 18.3188 8.25605L18.3569 8.67943L18.9451 8.69673L19.5334 8.71403L20.0191 7.74411L20.5048 6.77419H23.4684H26.4321L25.8266 7.98387L25.2212 9.19355L25.8266 10.4032L26.4321 11.6129H23.4684H20.5048L20.0191 10.643L19.5334 9.67306L18.9451 9.69036L18.3569 9.70766L18.3188 10.131C18.2277 11.1444 17.9456 12.1302 17.4496 13.1691C16.9752 14.1628 16.4754 14.8584 15.6235 15.7107C15.2162 16.1182 14.8949 16.4516 14.9095 16.4516C14.924 16.4516 16.2228 16.0834 17.7956 15.6334C19.3684 15.1834 20.7945 14.7755 20.9647 14.7269C21.2638 14.6414 21.2754 14.6298 21.3081 14.3859C21.3452 14.1094 21.4796 13.8955 21.737 13.7033C21.8938 13.5863 21.9852 13.5786 23.2258 13.5786C24.6805 13.5786 24.6984 13.5828 25.0063 13.9949C25.1242 14.1527 25.132 14.2543 25.1488 15.849L25.1667 17.5361L25.5403 17.7348C26.2443 18.1091 26.7932 18.8197 27.0042 19.6296C27.3305 20.8823 26.7009 22.2932 25.5403 22.9104L25.1667 23.1091L25.1488 24.7962C25.132 26.3909 25.1242 26.4925 25.0063 26.6502C24.6984 27.0624 24.6805 27.0665 23.2258 27.0665C21.9852 27.0665 21.8938 27.0588 21.737 26.9418C21.4801 26.75 21.3452 26.5358 21.3084 26.2615C21.2872 26.1038 21.2385 26.0006 21.1767 25.9822C20.7945 25.8688 15.541 24.3755 15.4117 24.3435C15.2548 24.3046 15.2354 24.3291 14.8975 24.9893L14.5464 25.6754L14.5161 27.531C14.4875 29.2854 14.4791 29.3957 14.3612 29.5534C14.0532 29.9656 14.0353 29.9698 12.5806 29.9698C11.1259 29.9698 11.1081 29.9656 10.8001 29.5535C10.6819 29.3953 10.6738 29.2854 10.644 27.4403C10.6135 25.545 10.6081 25.477 10.4413 24.8488L10.2699 24.2036L8.9605 24.1834L7.65121 24.1633L7.24718 23.9719C6.6851 23.7056 6.33466 23.3626 6.0626 22.8123L5.83669 22.3555L5.81764 20.4911C5.79853 18.6252 5.81444 18.4257 6.02565 17.8752C6.04688 17.8199 6.02813 17.7819 5.97925 17.7814C5.81105 17.7796 4.60639 17.1561 4.02218 16.7684C3.19434 16.2191 2.15855 15.1772 1.58534 14.3173C0.495787 12.6826 0.0278835 11.1293 0.0327835 9.16331C0.0379238 7.09524 0.598972 5.37974 1.80309 3.75C3.16803 1.90264 5.16224 0.633085 7.41272 0.178911C7.99954 0.0604839 9.61319 -0.024254 10.1008 0.0378024ZM7.63597 1.11702C5.14754 1.6024 2.97381 3.25681 1.82698 5.53827C1.56538 6.05867 1.23145 7.04734 1.10807 7.66687C0.958368 8.41802 0.961452 9.99823 1.11399 10.7359C1.5799 12.9887 2.87371 14.8998 4.74798 16.1037C5.34442 16.4868 5.81038 16.7115 6.52168 16.9591C7.48391 17.294 8.04907 17.3842 9.19355 17.3854C10.2952 17.3865 10.8072 17.3079 11.7795 16.9883C14.7761 16.0034 17.0131 13.2536 17.3462 10.1457L17.3963 9.67742H15.4704C13.9804 9.67742 13.5402 9.69454 13.5253 9.75302C13.5146 9.79464 13.461 10.0192 13.4061 10.252C13.3512 10.4849 13.1928 10.9068 13.0542 11.1895C12.8498 11.6067 12.6983 11.8077 12.251 12.2554C11.7797 12.7271 11.6168 12.8469 11.1271 13.0819C9.81653 13.7108 8.57057 13.7108 7.26 13.0819C6.7702 12.8468 6.6072 12.727 6.13367 12.2534C5.66014 11.7799 5.54026 11.6169 5.30522 11.1271C4.67625 9.81653 4.67625 8.57056 5.30522 7.26C5.54026 6.7702 5.66014 6.6072 6.13367 6.13367C6.6072 5.66014 6.7702 5.54026 7.26 5.30522C8.57057 4.67625 9.81653 4.67625 11.1271 5.30522C11.6169 5.54026 11.7799 5.66014 12.2534 6.13367C12.7251 6.60532 12.848 6.77214 13.0837 7.26C13.2359 7.57494 13.3981 8.02318 13.4443 8.25605L13.5282 8.67943L15.4623 8.6954L17.3965 8.71131L17.3462 8.24226C16.9433 4.48167 13.915 1.48185 10.0403 1.00482C9.61548 0.95256 8.12201 1.02224 7.63597 1.11702ZM8.55448 5.87111C7.38913 6.08099 6.35764 7.01371 5.95028 8.22581C5.78147 8.72812 5.7946 9.70107 5.97738 10.2333C6.33689 11.2801 7.14726 12.0743 8.22581 12.4368C8.68784 12.5921 9.70071 12.5918 10.1613 12.4363C11.2395 12.0721 12.0514 11.2841 12.3942 10.2689C12.6129 9.62123 12.759 9.67742 10.8569 9.67742H9.19355V9.19355V8.70968H10.8569C12.759 8.70968 12.6129 8.76587 12.3942 8.11821C11.8552 6.52222 10.2276 5.56972 8.55448 5.87111ZM22.8024 8.22581L22.5592 8.70968H23.4664H24.3737L24.6169 8.22581L24.8602 7.74194H23.9529H23.0457L22.8024 8.22581ZM20.8669 8.22581L20.6237 8.70968H21.0471H21.4704L21.7137 8.22581L21.957 7.74194H21.5336H21.1102L20.8669 8.22581ZM22.8024 10.1613L23.0457 10.6452H23.9529H24.8602L24.6169 10.1613L24.3737 9.67742H23.4664H22.5592L22.8024 10.1613ZM20.8669 10.1613L21.1102 10.6452H21.5336H21.957L21.7137 10.1613L21.4704 9.67742H21.0471H20.6237L20.8669 10.1613ZM22.2581 20.3226V26.129H23.2258H24.1935V20.3226V14.5161H23.2258H22.2581V20.3226ZM18.629 16.3989C17.3483 16.7643 16.1167 17.1173 15.8921 17.1834L15.4839 17.3035V20.3226V23.3416L15.8921 23.4618C16.5854 23.6658 20.9478 24.9082 21.124 24.9518L21.2903 24.993V20.3226V15.6522L21.124 15.6934C21.0325 15.7161 19.9098 16.0335 18.629 16.3989ZM29.0497 16.9224C29.2064 17.0816 29.3347 17.2386 29.3347 17.2712C29.3347 17.3039 29.0216 17.6428 28.6389 18.0244L27.9432 18.7181L27.5964 18.3713L27.2496 18.0245L27.9434 17.3288C28.325 16.9461 28.6658 16.6331 28.7009 16.6331C28.7359 16.6331 28.8929 16.7633 29.0497 16.9224ZM12.8763 17.5934C12.0349 17.9723 11.0289 18.2388 10.14 18.3182L9.70766 18.3569L9.69188 20.7913L9.67603 23.2258H12.0961H14.5161V20.3226V17.4194H13.8894C13.3289 17.4194 13.2219 17.4377 12.8763 17.5934ZM6.85942 18.3871C6.75387 18.681 6.74413 21.8702 6.84774 22.2208C6.94591 22.553 7.44696 23.0541 7.77919 23.1523C7.91613 23.1927 8.18178 23.2258 8.36958 23.2258H8.71107L8.69522 20.7913L8.67944 18.3569L8.22581 18.3147C7.97631 18.2915 7.66331 18.246 7.53024 18.2136C7.09875 18.1084 6.94524 18.1481 6.85942 18.3871ZM25.1748 21.1753L25.1915 22.028L25.4754 21.778C25.6383 21.6346 25.8317 21.3806 25.9291 21.1823C26.0746 20.8859 26.0988 20.7635 26.0988 20.3226C26.0988 19.8817 26.0746 19.7592 25.9291 19.4629C25.8317 19.2646 25.6383 19.0106 25.4754 18.8672L25.1915 18.6172L25.1748 19.4699C25.1655 19.9389 25.1655 20.7063 25.1748 21.1753ZM13.5484 19.8387V20.3226H12.0968H10.6452V19.8387V19.3548H12.0968H13.5484V19.8387ZM30 20.3226V20.8065H29.0323H28.0645V20.3226V19.8387H29.0323H30V20.3226ZM13.5484 21.7742V22.2581H12.0968H10.6452V21.7742V21.2903H12.0968H13.5484V21.7742ZM28.6695 22.6514L29.3633 23.3471L29.0162 23.6943L28.669 24.0414L27.9597 23.332L27.2504 22.6227L27.5798 22.2892C27.7609 22.1058 27.9241 21.9556 27.9425 21.9556C27.9608 21.9556 28.2879 22.2687 28.6695 22.6514ZM11.3854 24.6774L11.5069 25.1613H12.6177H13.7285L13.9718 24.6774L14.215 24.1935H12.7395H11.2639L11.3854 24.6774ZM11.6129 27.5806V29.0323H12.5806H13.5484V27.5806V26.129H12.5806H11.6129V27.5806ZM1.93548 27.5806V28.0645H2.41936H2.90323V28.5484V29.0323H2.41936H1.93548V29.5161V30H1.45161H0.967743V29.5161V29.0323H0.483871H0V28.5484V28.0645H0.483871H0.967743V27.5806V27.0968H1.45161H1.93548V27.5806Z" fill="#202020"/>
<circle cx="28.5658" cy="5.80893" r="1.68296" fill="#F3C251"/>
<circle cx="1.68296" cy="19.7904" r="1.68296" fill="#F3C251"/>
<circle cx="28.5658" cy="9.89097" r="1.68296" fill="#F3C251"/>
<circle cx="1.68296" cy="23.8714" r="1.68296" fill="#F3C251"/>
</svg>
