<svg width="28" height="30" viewBox="0 0 28 30" fill="none" xmlns="http://www.w3.org/2000/svg">
<path d="M14.0833 19.7298C5.74621 19.7298 0.563713 12.1814 0.563713 12.1814C0.563713 12.1814 5.07023 4.34192 14.0833 4.40764C23.0963 4.47335 27.3775 12.1814 27.3775 12.1814C27.3775 12.1814 23.209 19.7298 14.0833 19.7298Z" fill="#B6DEDC"/>
<circle cx="14.0829" cy="11.9569" r="7.32309" fill="#F3C251"/>
<path fill-rule="evenodd" clip-rule="evenodd" d="M13.4984 1.99414V3.98829L12.9516 4.02591C11.3455 4.1364 10.1092 4.34112 8.9544 4.68783C8.61938 4.78838 8.32579 4.85044 8.30198 4.82569C8.2781 4.80094 7.97501 4.02353 7.62843 3.09814C7.28178 2.17269 6.98338 1.40071 6.96526 1.38259C6.9202 1.33747 6.0618 1.63937 6.0618 1.70037C6.0618 1.72718 6.34239 2.49721 6.68535 3.41148C7.02831 4.32575 7.31653 5.1106 7.3259 5.15559C7.33615 5.20484 7.04087 5.38881 6.5848 5.61735C5.82001 6.00068 4.7617 6.66404 4.17508 7.12774C3.86024 7.37659 3.85543 7.37802 3.72507 7.26141C3.65264 7.19654 2.95278 6.5773 2.16994 5.88519L0.746476 4.6269L0.435762 4.97005C0.264844 5.15878 0.124986 5.33713 0.124986 5.36644C0.124986 5.39569 0.785847 6.00362 1.59357 6.71729C2.40128 7.43102 3.06215 8.02876 3.06215 8.04563C3.06215 8.06244 2.75393 8.39684 2.37722 8.78873C1.29535 9.9141 0 11.6632 0 11.9986C0 12.1896 0.665986 13.1972 1.34341 14.0312C1.90578 14.7235 3.1602 15.9495 3.87455 16.5049C5.39906 17.6903 7.15311 18.6187 8.97609 19.2054C9.68232 19.4326 10.8652 19.7117 11.4049 19.7784C12.0644 19.8599 11.9986 19.7317 11.9986 20.9363V21.9975H11.4704C10.8793 21.9975 10.67 22.0649 10.5682 22.2885C10.5199 22.3944 10.4988 23.5238 10.4988 25.997C10.4988 28.4701 10.5199 29.5996 10.5682 29.7055C10.6063 29.7892 10.7061 29.889 10.7898 29.9272C11.003 30.0243 16.9937 30.0243 17.2069 29.9272C17.2907 29.889 17.3904 29.7892 17.4286 29.7055C17.526 29.4916 17.526 22.5024 17.4286 22.2885C17.3267 22.0649 17.1174 21.9975 16.5249 21.9975H15.9951L16.0123 20.9551L16.0294 19.9127L16.7854 19.8039C21.2257 19.1651 24.8458 16.8202 27.5331 12.8423C27.8121 12.4292 27.9973 12.0909 27.9971 11.9947C27.9964 11.6784 26.782 10.047 25.758 8.98684L25.1125 8.31854L26.5264 6.83583L27.9403 5.35313L27.6113 5.02004C27.4304 4.83688 27.2626 4.68696 27.2384 4.68696C27.2142 4.68696 26.5664 5.34782 25.7989 6.15554C25.0314 6.96326 24.3817 7.62412 24.3552 7.62412C24.3287 7.62412 24.1318 7.48795 23.9178 7.32159C23.0946 6.68173 22.0587 6.05074 21.0792 5.59248L20.5046 5.32363L21.2234 3.5279C21.6188 2.54021 21.9195 1.71043 21.8917 1.68393C21.8347 1.62956 21.0449 1.30404 21.0283 1.3281C21.0224 1.3366 20.6992 2.14506 20.3102 3.12464C19.9211 4.10421 19.5931 4.91749 19.5814 4.93187C19.5696 4.94624 19.2718 4.87131 18.9196 4.76526C17.7044 4.39943 15.824 4.06203 15.0002 4.06203C14.4567 4.06203 14.4983 4.23357 14.4983 1.99308V0H13.9984H13.4984V1.99414ZM14.6797 5.06073C15.7835 5.18765 16.6603 5.48043 17.5917 6.03305C19.2523 7.01838 20.3956 8.61425 20.8246 10.5456C20.9813 11.2507 21.0073 12.569 20.8778 13.243C20.2811 16.3509 17.8223 18.5934 14.6306 18.9406C13.2318 19.0927 11.7134 18.742 10.405 17.9646C8.74336 16.9773 7.60118 15.3828 7.17217 13.4516C7.0155 12.7465 6.9895 11.4282 7.11893 10.7543C7.2146 10.2557 7.52494 9.31967 7.73192 8.90522C9.02096 6.32408 11.8848 4.73939 14.6797 5.06073ZM8.56745 6.1651C7.01431 7.608 6.12173 9.55283 6.01924 11.7174C5.91975 13.818 6.74466 15.9547 8.26742 17.5408C8.54176 17.8266 8.75374 18.0604 8.73849 18.0604C8.66206 18.0604 7.5405 17.5825 7.09787 17.3614C4.89468 16.2605 2.81392 14.4671 1.43783 12.4829L1.10193 11.9986L1.43571 11.5143C3.04227 9.18338 5.08185 7.39177 7.29941 6.36339C7.82609 6.11917 8.90872 5.69672 9.02496 5.69009C9.05645 5.68834 8.85054 5.90207 8.56745 6.1651ZM19.84 6.16022C20.8811 6.57999 22.0044 7.19429 22.9036 7.83553C24.2262 8.77873 25.6683 10.2301 26.5589 11.5143L26.8948 11.9986L26.5611 12.4829C24.9545 14.8138 22.9146 16.6058 20.6974 17.6338C20.2066 17.8613 19.0489 18.3104 18.9531 18.3104C18.9319 18.3104 19.1462 18.0952 19.4293 17.8321C20.9824 16.3892 21.875 14.4444 21.9775 12.2798C22.077 10.1793 21.2521 8.04251 19.7293 6.45638C19.455 6.1706 19.243 5.93681 19.2583 5.93681C19.2735 5.93681 19.5353 6.03736 19.84 6.16022ZM14.4983 6.97938V7.4767L14.9736 7.55063C16.2768 7.75323 17.4689 8.63094 18.0545 9.81899C18.2903 10.2973 18.494 11.0064 18.4968 11.3581C18.4978 11.4923 18.521 11.4987 19.0064 11.4987H19.515L19.4716 11.0144C19.3758 9.94729 18.8118 8.76417 18.0223 7.9747C17.2328 7.18523 16.0497 6.62117 14.9826 6.52543L14.4983 6.482V6.97938ZM14.9983 20.9976V21.9975H13.9984H12.9985V20.9976V19.9977H13.9984H14.9983V20.9976Z" fill="black"/>
</svg>
