<svg width="26" height="30" viewBox="0 0 26 30" fill="none" xmlns="http://www.w3.org/2000/svg">
<path d="M25.2077 12.7572C25.2077 10.025 24.3062 7.36915 22.6429 5.20156C20.9797 3.03396 18.6477 1.47576 16.0086 0.768614C13.3695 0.0614707 10.5708 0.244906 8.04658 1.29047C5.52237 2.33604 3.41369 4.1853 2.04759 6.55145L12.7963 12.7572H25.2077Z" fill="#C6E6F7"/>
<path d="M2.04759 6.55145C0.935631 8.47742 0.361583 10.6668 0.385482 12.8906C0.409381 15.1144 1.03035 17.2909 2.18344 19.1925L12.7963 12.7572L2.04759 6.55145Z" fill="#F3C251"/>
<path d="M12.7963 25.1687C14.4262 25.1687 16.0401 24.8476 17.5459 24.2239C19.0518 23.6002 20.42 22.686 21.5725 21.5334C22.725 20.3809 23.6392 19.0127 24.263 17.5069C24.8867 16.001 25.2077 14.3871 25.2077 12.7572H12.7963L12.7963 25.1687Z" fill="#C799FD"/>
<path fill-rule="evenodd" clip-rule="evenodd" d="M11.3473 0.0587829C8.94697 0.329689 6.63705 1.30131 4.72412 2.84451C2.15855 4.91423 0.476197 7.95661 0.0632149 11.2734C-0.0328507 12.0447 -0.0169082 13.732 0.0939277 14.5264C0.549345 17.7899 2.23345 20.7467 4.81204 22.81C6.06681 23.8141 7.73744 24.6775 9.23727 25.0971C11.4143 25.7061 13.7615 25.7541 15.8333 25.2317L16.3587 25.0993V27.5497V30H19.4358H22.513V29.5604V29.1208H19.8754H17.2379V26.9601V24.7994L17.5163 24.6958C17.6694 24.6388 18.111 24.4352 18.4976 24.2433C21.0083 22.9972 23.0161 20.9749 24.2741 18.4254C24.9042 17.1483 25.3074 15.7944 25.5049 14.2919C25.6009 13.5617 25.5836 11.8622 25.472 11.0682C25.0147 7.81471 23.3601 4.87554 20.8425 2.84451C20.0263 2.18606 19.3375 1.74793 18.3808 1.27897C17.0472 0.625154 15.6253 0.215864 14.119 0.0523355C13.4522 -0.0201093 12.0164 -0.0167684 11.3473 0.0587829ZM14.4538 1.02313C17.5316 1.44268 20.3814 3.1269 22.2767 5.64659C23.2522 6.94356 23.8947 8.28397 24.2996 9.86667C24.475 10.5526 24.535 10.9174 24.6538 12.0207L24.6901 12.3577H18.8445H12.999L8.04099 9.30991C5.31412 7.6336 3.04594 6.23822 3.00063 6.20903C2.89753 6.14256 3.23643 5.65128 3.91697 4.88047C6.52094 1.93109 10.4804 0.481612 14.4538 1.02313ZM7.22171 9.87722C9.82843 11.4787 11.9549 12.7949 11.9473 12.802C11.9012 12.8448 2.60107 18.707 2.54392 18.7293C2.45565 18.7637 1.94438 17.7558 1.64129 16.95C1.11548 15.5519 0.920654 14.4312 0.919482 12.7973C0.918486 11.3952 1.03348 10.5569 1.3868 9.39051C1.67007 8.45535 2.32401 6.96536 2.4512 6.96536C2.46831 6.96536 4.61505 8.2757 7.22171 9.87722ZM24.6538 13.7497C24.3131 17.9361 21.7918 21.6151 17.9705 23.5017L17.2672 23.849L17.2492 23.6129L17.2311 23.3768H16.7976H16.364L16.3467 23.7724L16.3294 24.1681L15.731 24.3232C15.0511 24.4994 13.9899 24.6663 13.5493 24.6663H13.2522V18.9516V13.2369H18.9738H24.6955L24.6538 13.7497ZM12.3431 24.6571C12.2939 24.7063 10.9886 24.5552 10.3509 24.4266C8.65783 24.0849 6.86928 23.2453 5.42747 22.1152C4.6263 21.4873 3.66752 20.4945 3.18725 19.7956L3.01001 19.5377L7.6769 16.5911L12.3437 13.6445L12.3587 19.1355C12.3669 22.1556 12.3599 24.6404 12.3431 24.6571ZM16.3587 22.058V22.4976H16.7983H17.2379V22.058V21.6184H16.7983H16.3587V22.058ZM21.6458 24.2706L21.6631 24.6956L22.088 24.7128L22.513 24.7301V24.2879V23.8457H22.0708H21.6286L21.6458 24.2706ZM20.3443 26.0437V26.4833H21.4286H22.513V26.0437V25.6041H21.4286H20.3443V26.0437ZM18.5859 27.802V28.2416H20.5494H22.513V27.802V27.3624H20.5494H18.5859V27.802Z" fill="#202020"/>
</svg>
